<?xml version="1.0" encoding="utf-8"?>
<!-- Generator: Adobe Illustrator 16.0.4, SVG Export Plug-In . SVG Version: 6.00 Build 0)  -->
<!DOCTYPE svg PUBLIC "-//W3C//DTD SVG 1.1//EN" "http://www.w3.org/Graphics/SVG/1.1/DTD/svg11.dtd">
<svg version="1.1" xmlns="http://www.w3.org/2000/svg" xmlns:xlink="http://www.w3.org/1999/xlink" x="0px" y="0px" width="200px"
	 height="200px" viewBox="0 0 200 200" enable-background="new 0 0 200 200" xml:space="preserve">
<g id="Lion">
	<path fill-rule="evenodd" clip-rule="evenodd" fill="#FFFFFF" d="M121.304,72.195c-1.29-0.368-2.588-0.603-3.749-1.319
		c-1.084-0.668-1.929-1.771-2.712-2.756c-1.769-2.227-2.788-4.818-3.476-7.555c-0.688-2.744-0.924-5.563-1.525-8.323
		c-0.57-2.632-1.729-5.028-3.629-6.965c-1.885-1.921-4.197-3.041-6.823-3.571c-2.886-0.583-5.866-0.701-8.801-0.763
		c-1.507-0.031-3.001,0.007-4.507-0.088c-1.537-0.097-3.073-0.167-4.613-0.17c-3.114-0.006-6.228,0.021-9.341,0.039
		c-3.06,0.018-6.092,0.052-9.146,0.256c-3.066,0.204-6.136,0.351-9.203,0.546c-1.518,0.097-3.047,0.133-4.557,0.323
		c-1.504,0.189-2.998,0.473-4.499,0.688c-0.606,0.087-1.285,0.075-1.874,0.237c-0.512,0.141-1.213,0.662-0.521,1.064
		c0.527,0.306,1.08,0.576,1.669,0.741c0.719,0.203,1.48,0.218,2.221,0.28c3.034,0.251,6.074,0.668,9.122,0.656
		c3.06-0.012,6.119-0.023,9.179,0.003c6.109,0.054,12.277,0.191,18.341,0.974c1.437,0.185,2.889,0.292,4.315,0.528
		c0.685,0.114,1.361,0.277,2.046,0.384c0.709,0.11,1.424,0.127,2.129,0.271c0.634,0.129,1.29,0.397,1.934,0.443
		c0.647,0.046,1.29,0.154,1.922,0.298c1.306,0.297,2.63,0.766,3.778,1.462c0.947,0.575,1.702,1.402,2.192,2.395
		c0.592,1.2,0.797,2.56,1.134,3.844c0.167,0.634,0.327,1.309,0.645,1.887c0.334,0.608,0.438,1.202,0.625,1.864
		c0.378,1.346,0.968,2.619,1.4,3.946c0.188,0.574,0.656,1.174,0.485,1.803c0.365-0.325,0.703,0.667,0.82,0.894
		c0.27,0.524,0.522,1.056,0.79,1.582c0.267,0.526,0.547,1.046,0.87,1.54c0.354,0.543,0.769,1.035,1.088,1.601
		c0.583,1.033,1.011,2.147,1.74,3.094c0.725,0.938,1.51,1.897,2.34,2.742c0.627,0.639,1.66,1.669,2.633,1.644
		c0.482-0.013,0.75-0.384,0.99-0.751c0.345-0.525,0.761-1.002,1.217-1.433c0.879-0.83,1.855-1.567,2.761-2.371
		c0.397-0.354,0.855-0.648,1.015-1.178C121.862,72.535,121.755,72.324,121.304,72.195C120.842,72.063,121.854,72.352,121.304,72.195
		z"/>
	<path fill-rule="evenodd" clip-rule="evenodd" fill="#FFFFFF" d="M92.678,48.52c-3.012-0.612-6.062-0.94-9.104-1.356
		c-0.716-0.098-1.434-0.189-2.156-0.213c-0.478-0.017-1.17-0.099-1.555,0.265c-0.342,0.325-0.314,0.899-0.345,1.327
		c-0.047,0.648-0.045,1.308,0.071,1.949c0.488,2.697,3.529,3.607,5.898,3.924c1.466,0.196,2.909,0.125,4.375-0.036
		c1.448-0.159,2.892-0.393,4.294-0.791c0.595-0.169,1.214-0.347,1.771-0.619c0.262-0.128,0.516-0.277,0.795-0.368
		c0.287-0.093,0.589-0.07,0.879-0.15c0.563-0.155,1.032-0.521,1.55-0.777c0.558-0.275,0.387-0.559-0.001-0.933
		C97.506,49.155,94.813,48.952,92.678,48.52C90.081,47.992,92.822,48.549,92.678,48.52z"/>
	<path fill-rule="evenodd" clip-rule="evenodd" fill="#FFFFFF" d="M89.389,61.358c-1.972,0.224-4.154-1.402-5.003-3.091
		c-0.185-0.369-0.353-0.794-0.256-1.21c0.107-0.458,0.439-1.031,0.919-1.178c1.416-0.433,2.839-0.747,4.319-0.846
		c2.921-0.196,5.775-1.011,8.491-2.067c0.635-0.247,1.266-0.528,1.916-0.728c0.459-0.142,0.691,0.005,0.907,0.418
		c0.312,0.601,0.499,1.255,0.66,1.91c0.143,0.582,0.413,1.2-0.026,1.716c-0.27,0.319-0.639,0.459-1.005,0.635
		c-0.536,0.259-1.038,0.581-1.534,0.909c-1.031,0.685-2.064,1.28-3.218,1.742c-0.536,0.214-1.08,0.407-1.629,0.586
		c-0.583,0.19-1.099,0.458-1.665,0.677C91.333,61.193,90.335,61.094,89.389,61.358C87.248,61.602,90.203,61.131,89.389,61.358z"/>
	<path fill-rule="evenodd" clip-rule="evenodd" fill="#FFFFFF" d="M93.45,67.168c-0.545,0.046-1.074-0.429-1.45-0.765
		c-0.425-0.381-0.793-0.827-1.064-1.33c-0.252-0.465-0.417-0.972-0.503-1.493c-0.112-0.685,0.062-1.032,0.599-1.465
		c1.013-0.817,2.295-1.067,3.498-1.477c1.333-0.456,2.529-1.166,3.775-1.805c0.545-0.279,1.11-0.517,1.654-0.797
		c0.273-0.141,0.541-0.292,0.795-0.464c0.229-0.153,0.461-0.441,0.739-0.495c0.608-0.12,0.726,0.743,0.858,1.139
		c0.25,0.754,0.51,1.506,0.751,2.264c0.208,0.656-0.157,0.97-0.612,1.399c-0.501,0.473-1.011,0.935-1.535,1.382
		c-1.001,0.853-2.057,1.646-3.186,2.324C96.473,66.364,95.002,67.213,93.45,67.168C93.17,67.192,94.34,67.194,93.45,67.168z"/>
	<path fill-rule="evenodd" clip-rule="evenodd" fill="#FFFFFF" d="M75.877,57.369c1.132-0.049,2.266-0.05,3.396-0.121
		c0.527-0.033,1.053-0.083,1.574-0.166c0.511-0.081,1.012-0.245,1.532-0.241c0.3,0.002,1.21-0.017,0.789,0.525
		c-0.246,0.316-1.168,0.16-1.535,0.175c-0.932,0.04-1.869,0.201-2.727,0.578c-0.425,0.187-0.827,0.426-1.192,0.712
		c-0.338,0.264-0.633,0.732-1.02,0.912c-0.235,0.109-0.494-0.013-0.728-0.065c-0.292-0.066-0.587-0.117-0.882-0.168
		c-0.505-0.086-1.01-0.149-1.445-0.439c-0.35-0.234-0.628-0.553-0.928-0.846c-0.212-0.208-0.62-0.842-0.057-0.936
		C73.702,57.116,74.815,57.484,75.877,57.369C78.056,57.275,75.102,57.453,75.877,57.369z"/>
	<path fill-rule="evenodd" clip-rule="evenodd" fill="#FFFFFF" d="M64.08,49.999c2.99-0.447,5.973,0.578,8.952,0.73
		c1.506,0.077,2.966-0.127,4.46-0.253c1.319-0.111,1.536,0.96,2.136,1.886c0.297,0.459,0.551,0.863-0.199,0.934
		c-0.778,0.074-1.552,0.188-2.331,0.254c-1.487,0.127-2.981-0.088-4.463-0.209c-1.426-0.116-2.862-0.177-4.269-0.454
		c-1.396-0.275-2.563-0.792-3.711-1.624C64.19,50.925,63.919,50.604,64.08,49.999C65.33,49.812,63.946,50.501,64.08,49.999z"/>
	<path fill-rule="evenodd" clip-rule="evenodd" fill="#FFFFFF" d="M157.389,109.359c0.172,0.904-0.131,1.798-0.203,2.695
		c-0.092,1.113-0.877,0.428-1.336-0.083c-0.476-0.528-0.863-1.144-1.049-1.834c-0.23-0.866,0.004-1.675-0.004-2.545
		c-0.009-0.907-0.3-1.778-0.328-2.678c-0.031-0.893,1.089-0.196,1.451,0.029c0.723,0.449,0.885,1.054,1.092,1.83
		C157.238,107.619,157.563,108.47,157.389,109.359C157.572,110.326,157.602,108.279,157.389,109.359z"/>
	<path fill-rule="evenodd" clip-rule="evenodd" fill="#FFFFFF" d="M70.403,84.23c-0.077,0.292-0.208,0.656-0.558,0.69
		c-0.444,0.044-0.834,0.345-1.236,0.516c-0.914,0.388-1.899,0.564-2.887,0.602c-1.005,0.038-1.995-0.091-2.994-0.164
		c-0.223-0.017-0.447-0.031-0.67-0.047c-0.199-0.015-0.478,0.066-0.651-0.063c-0.203-0.152-0.569-0.13-0.703-0.369
		c-0.196-0.35,0.23-0.538,0.489-0.605c0.444-0.115,0.867-0.288,1.275-0.497c0.809-0.413,1.649-1.221,2.573-1.323
		c0.481-0.053,0.822,0.164,1.218,0.396c0.394,0.231,0.813,0.421,1.249,0.563C68.44,84.232,69.429,84.303,70.403,84.23
		C70.284,84.681,68.773,84.353,70.403,84.23z"/>
	<path fill-rule="evenodd" clip-rule="evenodd" fill="#FFFFFF" d="M142.384,120.478c0.001,0.649-0.251,1.109-0.692,1.583
		c-0.311,0.331-1.102,1.2-1.614,1.044c-0.281-0.086-0.532-0.462-0.774-0.633c-0.279-0.197-0.576-0.368-0.85-0.574
		c-0.458-0.348-0.979-0.893-0.744-1.518c0.223-0.592,0.875-0.928,1.269-1.397c0.221-0.265,0.411-0.554,0.569-0.859
		c0.117-0.227,0.242-0.681,0.569-0.679c0.278,0.002,0.611,0.42,0.804,0.594c0.25,0.23,0.492,0.471,0.71,0.732
		C142.052,119.279,142.352,119.818,142.384,120.478C142.385,120.861,142.381,120.414,142.384,120.478z"/>
	<path fill-rule="evenodd" clip-rule="evenodd" fill="#FFFFFF" d="M127.08,94.813c0.135-1.262,0.621-2.473,1.619-3.297
		c0.323-0.266,0.896-0.786,1.324-0.448c0.559,0.439,0.949,1.209,1.338,1.792c0.398,0.594,0.875,1.176,0.164,1.745
		c-0.564,0.451-1.197,0.583-1.902,0.617c-0.324,0.015-0.65,0.075-0.947,0.21c-0.292,0.134-0.506,0.373-0.787,0.517
		C127.154,96.326,127.069,95.249,127.08,94.813C127.229,93.433,127.068,95.311,127.08,94.813z"/>
	<path fill-rule="evenodd" clip-rule="evenodd" fill="#FFFFFF" d="M120.118,104.977c0.221,0.342-0.098,0.802-0.175,1.151
		c-0.096,0.438-0.116,0.889-0.07,1.335c0.091,0.918,0.471,1.719,0.807,2.563c0.318,0.799,0.455,1.661,0.307,2.514
		c-0.077,0.447-0.422,1.684-1.136,1.32c-0.226-0.114-0.229-0.425-0.259-0.643c-0.059-0.415-0.214-0.828-0.324-1.233
		c-0.254-0.925-0.535-1.849-0.602-2.81c-0.066-0.938,0.041-1.883,0.273-2.793C119.104,105.74,119.387,105.094,120.118,104.977
		C120.239,105.165,119.328,105.104,120.118,104.977z"/>
	<path fill-rule="evenodd" clip-rule="evenodd" fill="#FFFFFF" d="M158.741,99.981c-0.721,0.012-1.005-0.284-1.308-0.888
		c-0.363-0.726-0.994-1.315-1.383-2.041c-0.365-0.685-0.416-1.513-0.844-2.155c-0.162-0.243-0.388-0.511-0.234-0.819
		c0.135-0.269,0.471-0.356,0.748-0.361c0.487-0.009,1.041,0.004,1.453,0.3c0.46,0.331,0.61,0.922,0.753,1.438
		c0.226,0.822,0.486,1.642,0.581,2.493c0.042,0.376-0.004,0.754,0.139,1.111C158.768,99.365,158.881,99.659,158.741,99.981
		C158.13,99.992,158.977,99.435,158.741,99.981z"/>
	<path fill-rule="evenodd" clip-rule="evenodd" fill="#FFFFFF" d="M140.621,100.19c-1.051,0.046-2.555-0.141-2.943-1.321
		c-0.219-0.666,0.852-0.567,1.242-0.621c0.589-0.081,1.338-0.056,1.862-0.361c0.608-0.353,1.263-0.3,1.911-0.1
		c0.45,0.14,1.107,0.318,1.012,0.923c-0.084,0.53-0.564,1.011-1.057,1.188C142.057,100.109,141.248,100.259,140.621,100.19
		C139.947,100.22,141.149,100.248,140.621,100.19z"/>
	<path fill-rule="evenodd" clip-rule="evenodd" fill="#FFFFFF" d="M135.168,43.96c-0.016-1.278,1.024-1.809,2.143-2.023
		c0.545-0.104,1.407,0.138,1.45,0.814c0.021,0.333-0.333,0.633-0.456,0.93c-0.135,0.324-0.191,0.673-0.219,1.021
		c-0.026,0.338,0.109,1.129-0.178,1.389c-0.275,0.25-1.014,0.096-1.332,0.022C135.529,45.871,135.18,44.945,135.168,43.96
		C135.155,42.967,135.187,45.47,135.168,43.96z"/>
	<path fill-rule="evenodd" clip-rule="evenodd" fill="#FFFFFF" d="M155.803,92.999c-0.544,0.054-1.208-0.307-1.691-0.528
		c-0.275-0.125-0.529-0.294-0.793-0.44c-0.273-0.152-0.617-0.211-0.864-0.401c-0.442-0.339-0.233-0.9-0.073-1.332
		c0.158-0.43,0.252-0.996,0.627-1.304c0.428-0.354,1.118-0.037,1.501,0.236c0.55,0.393,0.923,1.005,1.26,1.578
		c0.303,0.515,0.678,1.135,0.764,1.735C156.595,92.979,156.125,92.993,155.803,92.999C155.274,93.051,156.553,92.987,155.803,92.999
		z"/>
	<path fill-rule="evenodd" clip-rule="evenodd" fill="#FFFFFF" d="M127.687,114.695c-0.045,0.705,0.108,1.395,0.407,2.031
		c0.281,0.592,0.844,1.168,0.869,1.85c0.021,0.53-0.443,1.347-0.918,1.586c-0.526,0.266-0.984-1.047-1.1-1.379
		c-0.24-0.701-0.243-1.479-0.455-2.194c-0.189-0.644-0.814-1.444-0.512-2.126c0.24-0.545,0.98-0.845,1.544-0.668
		C127.988,113.941,127.594,114.394,127.687,114.695C127.617,115.787,127.6,114.413,127.687,114.695z"/>
	<path fill-rule="evenodd" clip-rule="evenodd" fill="#FFFFFF" d="M134.447,119.898c0.028,0.497-0.061,0.967-0.344,1.383
		c-0.225,0.329-0.572,0.822-1.012,0.518c-0.473-0.328-0.848-0.945-1.155-1.421c-0.333-0.515-0.598-1.092-0.62-1.713
		c-0.018-0.526,0.141-1.054,0.48-1.463c0.199-0.24,0.941-0.923,1.141-0.339c0.205,0.607,0.469,1.195,0.782,1.755
		C133.938,119.005,134.408,119.54,134.447,119.898C134.485,120.559,134.456,119.984,134.447,119.898z"/>
	<path fill-rule="evenodd" clip-rule="evenodd" fill="#FFFFFF" d="M159.964,78.763c-0.131,0.349,0.22,0.82-0.306,0.975
		c-0.498,0.146-0.674-0.634-0.891-0.936c-0.365-0.513-0.836-0.941-1.359-1.29c-0.283-0.189-1.721-0.766-1.485-1.224
		c0.11-0.213,0.407-0.414,0.574-0.589c0.22-0.231,0.45-0.455,0.738-0.599c0.438-0.22,1.041-0.401,1.433-0.005
		c0.403,0.407,0.686,1.063,0.911,1.582C159.865,77.336,160.019,78.043,159.964,78.763C159.863,79.033,160.065,77.427,159.964,78.763
		z"/>
	<path fill-rule="evenodd" clip-rule="evenodd" fill="#FFFFFF" d="M110.832,88.806c-0.009-1.216,0.877-2.074,1.853-2.663
		c0.562-0.338,1.196-0.576,1.862-0.502c0.85,0.094,0.275,0.703,0.011,1.095c-0.631,0.933-1.147,2.001-2.138,2.615
		c-0.299,0.186-0.917,0.652-1.307,0.521C110.762,89.753,110.832,89.079,110.832,88.806C110.824,87.695,110.832,88.88,110.832,88.806
		z"/>
	<path fill-rule="evenodd" clip-rule="evenodd" fill="#FFFFFF" d="M158.081,101.033c1.005,0.406,1.433,1.452,1.698,2.428
		c0.176,0.648,0.251,1.324,0.209,1.996c-0.032,0.516-0.075,1.432-0.479,1.809c-0.397,0.372-0.706-0.07-0.969-0.355
		c-0.454-0.493-0.452-0.947-0.458-1.593C158.067,103.89,158.081,102.461,158.081,101.033
		C158.929,101.375,158.081,102.77,158.081,101.033z"/>
	<path fill-rule="evenodd" clip-rule="evenodd" fill="#FFFFFF" d="M153.77,87.354c0.129-0.703,0.357-2.273,1.438-1.501
		c0.825,0.588,1.503,1.146,1.89,2.11c0.143,0.358,0.459,0.956,0.274,1.337c-0.247,0.51-0.839,0.255-1.219,0.089
		c-0.559-0.244-1.083-0.561-1.587-0.9c-0.2-0.136-0.479-0.272-0.634-0.462C153.781,87.843,153.814,87.574,153.77,87.354
		C153.869,86.808,153.828,87.644,153.77,87.354z"/>
	<path fill-rule="evenodd" clip-rule="evenodd" fill="#FFFFFF" d="M127.714,49.858c-0.594,0.015-1.22-0.252-1.391-0.865
		c-0.075-0.268-0.071-0.633,0.075-0.878c0.217-0.367,0.609-0.043,0.886,0.053c0.389,0.135,0.8,0.188,1.208,0.229
		c0.222,0.022,0.658,0.034,0.693,0.335C129.271,49.463,128.191,49.68,127.714,49.858C126.642,49.884,128.034,49.739,127.714,49.858z
		"/>
	<path fill-rule="evenodd" clip-rule="evenodd" fill="#FFFFFF" d="M128.407,114.988c0.062-1.363,0.659-2.597,1.752-3.432
		c0.611-0.466,1.365-0.879,2.112-1.068c0.248-0.062,0.703-0.18,0.85,0.126c0.072,0.151,0.016,0.322-0.01,0.477
		c-0.051,0.299-0.078,0.602-0.09,0.905c-0.018,0.48,0.006,0.963,0.044,1.443c0.034,0.423,0.167,0.914,0.044,1.33
		c-0.241,0.824-1.215,1.426-1.891,1.873c-0.429,0.283-1.417,1.192-1.941,0.725C128.711,116.863,128.363,115.719,128.407,114.988
		C128.489,113.195,128.359,115.775,128.407,114.988z"/>
	<path fill-rule="evenodd" clip-rule="evenodd" fill="#FFFFFF" d="M134.301,114.118c-0.519-0.599-0.473-1.353-0.424-2.091
		c0.051-0.754,0.139-1.513,0.369-2.235c0.232-0.726,0.619-1.395,1.182-1.915c0.295-0.274,0.641-0.484,0.937-0.758
		c0.342-0.314,0.636-0.674,0.908-1.048c0.602-0.826,1.186,1.159,1.254,1.564c0.155,0.926-0.19,1.87-0.492,2.735
		c-0.15,0.43-0.325,0.85-0.534,1.254c-0.21,0.404-0.481,0.591-0.863,0.819C135.812,112.935,135.068,113.545,134.301,114.118
		C133.72,113.447,135.201,113.446,134.301,114.118z"/>
	<path fill-rule="evenodd" clip-rule="evenodd" fill="#FFFFFF" d="M117.725,128.134c1.006,2.051,2.275,3.987,3.01,6.161
		c0.38,1.122,0.609,2.306,0.585,3.493c-0.014,0.635-0.102,1.27-0.269,1.883c-0.098,0.365-0.192,1.085-0.616,1.226
		c-0.389-0.175-0.401-0.558-0.42-0.928c-0.026-0.54-0.284-1.096-0.475-1.597c-0.423-1.118-0.929-2.209-1.255-3.361
		c-0.34-1.191-0.574-2.367-0.696-3.598C117.48,130.311,117.155,129.164,117.725,128.134
		C118.99,130.717,117.324,128.857,117.725,128.134z"/>
	<path fill-rule="evenodd" clip-rule="evenodd" fill="#FFFFFF" d="M140.075,101.09c0.517,0.033,1.298-0.025,1.61,0.488
		c0.418,0.685,0.51,1.676,0.509,2.457c-0.002,0.958-0.226,1.9-0.569,2.791c-0.17,0.439-0.714,2.293-1.415,1.74
		c-1.396-1.101-1.844-3.18-1.747-4.852c0.045-0.756,0.166-1.556,0.412-2.276C139.051,100.922,139.641,101.059,140.075,101.09
		C140.261,101.102,138.937,101.009,140.075,101.09z"/>
	<path fill-rule="evenodd" clip-rule="evenodd" fill="#FFFFFF" d="M130.135,99.862c-0.084-1.72,0.848-3.151,1.896-4.432
		c0.207-0.253,0.487-0.617,0.851-0.384c0.355,0.226,0.627,0.771,0.903,1.09c0.503,0.58,1.173,1.194,1.312,1.981
		c0.235,1.333-0.769,2.6-2.07,2.8c-0.48,0.074-0.965,0.123-1.444,0.191c-0.328,0.047-0.698,0.159-1.032,0.102
		C130.015,101.12,130.137,100.233,130.135,99.862C130.043,97.96,130.135,100.011,130.135,99.862z"/>
	<path fill-rule="evenodd" clip-rule="evenodd" fill="#FFFFFF" d="M64.188,82.283c-0.485,0.785-1.55,1.102-2.36,1.432
		c-0.993,0.404-1.957,0.902-3.018,1.103c-1.034,0.195-2.091,0.177-3.138,0.135c-0.554-0.022-1.107-0.05-1.661-0.057
		c-0.458-0.005-0.97,0.049-1.188-0.457c-0.312-0.726,1.652-1.033,2.076-1.172c1.024-0.336,1.932-0.826,2.902-1.277
		c0.414-0.192,0.857-0.327,1.316-0.34c0.559-0.016,1.063,0.2,1.606,0.289C61.872,82.128,63.05,82.008,64.188,82.283
		C63.845,82.837,62.744,81.934,64.188,82.283z"/>
	<path fill-rule="evenodd" clip-rule="evenodd" fill="#FFFFFF" d="M139.229,108.888c0.633,0.359,0.883,1.035,1.361,1.543
		c0.834-0.902,0.819-2.334,1.896-3.055c0.561,1.174,1.323,2.307,1.494,3.623c0.145,1.121-0.199,2.949-1.426,3.401
		c-1.071,0.396-2.168-1.155-2.648-1.925C139.234,111.394,139.029,110.138,139.229,108.888
		C139.922,109.283,138.861,111.191,139.229,108.888z"/>
	<path fill-rule="evenodd" clip-rule="evenodd" fill="#FFFFFF" d="M154.111,97.944c-1.549-0.129-3.332-0.938-4.396-2.083
		c-0.567-0.61-0.01-1.263,0.375-1.803c0.273-0.384,0.555-0.763,0.841-1.138c0.241-0.315,0.46-0.614,0.89-0.642
		c0.745-0.046,1.511,0.453,1.889,1.061c0.442,0.712,0.87,1.44,1.166,2.227c0.215,0.57,0.499,1.359,0.379,1.981
		C155.164,98.01,154.453,97.94,154.111,97.944C152.68,97.825,155.249,97.933,154.111,97.944z"/>
	<path fill-rule="evenodd" clip-rule="evenodd" fill="#FFFFFF" d="M152.12,98.4c0.844-0.06,1.663,0.177,2.514,0.224
		c0.889,0.048,1.586-0.05,2.008,0.859c0.379,0.815,0.599,1.694,0.69,2.586c0.077,0.757,0.286,1.987-0.405,2.533
		c-0.29,0.229-0.589-0.271-0.853-0.386c-0.334-0.146-0.674-0.257-0.995-0.433c-0.611-0.335-1.153-0.792-1.553-1.365
		c-0.378-0.542-0.614-1.168-0.735-1.815c-0.064-0.349-0.097-0.682-0.233-1.015C152.398,99.196,152.205,98.819,152.12,98.4
		C152.374,98.382,152.266,99.121,152.12,98.4z"/>
	<path fill-rule="evenodd" clip-rule="evenodd" fill="#FFFFFF" d="M147.791,104.333c-0.043,0.393-0.039,1.492-0.72,1.274
		c-0.356-0.114-0.683-0.407-1.004-0.594c-0.419-0.244-0.853-0.472-1.251-0.749c-0.682-0.474-1.18-1.142-1.578-1.86
		c-0.343-0.619-0.813-1.415-0.027-1.907c0.699-0.437,1.168-0.981,1.575-1.686c0.153-0.266,0.399-0.494,0.73-0.44
		c0.397,0.064,0.467,0.5,0.562,0.819c0.256,0.869,0.656,1.686,0.999,2.522C147.428,102.569,147.623,103.427,147.791,104.333
		C147.757,104.645,147.752,104.126,147.791,104.333z"/>
	<path fill-rule="evenodd" clip-rule="evenodd" fill="#FFFFFF" d="M154.263,114.472c0.005,0.433-0.012,1.145-0.628,1.021
		c-0.685-0.138-1.395-0.644-1.875-1.128c-0.648-0.653-0.957-1.543-1.31-2.371c-0.356-0.844-0.924-1.786-0.944-2.715
		c-0.016-0.728,0.482-0.614,1.023-0.454c0.872,0.255,1.809,0.358,2.604,0.827c0.719,0.422,0.914,1.061,0.949,1.852
		C154.125,112.492,154.064,113.498,154.263,114.472C154.276,115.529,154.055,113.449,154.263,114.472z"/>
	<path fill-rule="evenodd" clip-rule="evenodd" fill="#FFFFFF" d="M152.099,101.38c0.002,0.2,0.021,0.491-0.196,0.594
		c-0.293,0.14-0.798-0.016-1.102-0.068c-0.73-0.126-1.452-0.339-2.098-0.707c-0.649-0.371-1.193-0.895-1.591-1.527
		c-0.292-0.464-0.799-1.271-0.574-1.847c0.22-0.562,1.053-1.01,1.56-1.269c0.61-0.313,1.015,0.314,1.402,0.706
		c0.637,0.642,1.461,1.121,1.978,1.87C151.931,99.793,152.115,100.586,152.099,101.38
		C152.103,101.729,152.125,100.099,152.099,101.38z"/>
	<path fill-rule="evenodd" clip-rule="evenodd" fill="#FFFFFF" d="M147.021,113.38c0.339,0.156,0.677,0.314,1.015,0.473
		c0.201,0.093,0.523,0.32,0.758,0.278c0.213-0.038,0.3-0.442,0.362-0.601c0.073-0.188,0.117-0.388,0.153-0.588
		c0.039-0.211,0.01-0.62,0.253-0.59c0.357,0.045,0.608,0.703,0.765,0.994c0.221,0.404,0.41,0.824,0.566,1.258
		c0.31,0.863,0.563,1.871,0.441,2.793c-0.057,0.434-0.184,0.854-0.271,1.283c-0.062,0.302-0.231,0.562-0.563,0.584
		c-0.697,0.047-1.535-0.486-2.016-0.947C147.213,117.094,147.282,114.999,147.021,113.38
		C147.57,113.635,147.228,114.665,147.021,113.38z"/>
	<path fill-rule="evenodd" clip-rule="evenodd" fill="#FFFFFF" d="M155.855,159.839c0.634-1.709,1.459-3.338,1.037-5.201
		c-0.141-0.625-0.566-1.275,0.27-1.5c0.629-0.168,1.346-0.125,1.856,0.313c0.565,0.485,0.661,1.294,0.757,1.987
		c0.132,0.951,0.115,1.926-0.143,2.854c-0.173,0.624-0.436,1.316-1.1,1.554C157.755,160.127,156.653,159.958,155.855,159.839
		C156.188,158.947,156.598,159.951,155.855,159.839z"/>
	<path fill-rule="evenodd" clip-rule="evenodd" fill="#FFFFFF" d="M69.18,83.45c-0.405,0.13-0.858-0.028-1.232-0.181
		c-0.343-0.142-0.94-0.314-1.106-0.682c-0.1-0.222-0.159-0.674,0.154-0.744c0.441-0.098,0.912-0.139,1.36-0.213
		c1.104-0.183,2.175-0.444,3.247-0.759c0.512-0.15,1.021-0.308,1.531-0.465c0.472-0.146,0.925-0.362,1.412-0.438
		c0.538-0.083,0.802,0.011,0.881,0.576c0.05,0.358,0.101,0.67,0.209,1.017c0.154,0.492-0.114,0.81-0.571,0.991
		c-0.855,0.338-1.861,0.493-2.767,0.635C71.266,83.348,70.223,83.424,69.18,83.45C68.644,83.623,71.106,83.402,69.18,83.45z"/>
	<path fill-rule="evenodd" clip-rule="evenodd" fill="#FFFFFF" d="M73.58,86.725c-0.827-0.042-1.656,0.072-2.458-0.194
		c-0.211-0.07-0.542-0.128-0.689-0.309c-0.208-0.254-0.025-0.658,0.191-0.841c0.28-0.237,0.682-0.373,1.001-0.554
		c0.347-0.197,0.688-0.403,1.035-0.601c0.691-0.395,1.411-0.758,2.194-0.934c0.32-0.072,0.754-0.189,1.082-0.113
		c0.323,0.075,0.527,0.574,0.733,0.809c0.339,0.387,1.37,1.187,1.261,1.773c-0.104,0.56-1.435,0.799-1.882,0.868
		C75.233,86.754,74.402,86.718,73.58,86.725C72.845,86.688,75.08,86.712,73.58,86.725z"/>
	<path fill-rule="evenodd" clip-rule="evenodd" fill="#FFFFFF" d="M114.068,82.034c-1.119,0.245-2.199,0.764-2.896,1.699
		c-0.357,0.479-0.598,1.037-0.741,1.616c-0.128,0.516,1.469,0.122,1.742,0.2c-0.972,1.816-3.703,1.427-5.242,0.639
		c-2.242-1.147-2.889-3.952-1.376-5.979c0.775-1.039,1.877-1.817,2.762-2.761c0.447-0.478,0.866-0.984,1.229-1.529
		c0.284-0.426,0.775-0.93,1.277-0.458c0.472,0.443,0.848,1.01,1.297,1.479c0.53,0.552,1.104,1.063,1.668,1.581
		c0.133,0.121,0.264,0.241,0.395,0.362c-0.078,0.111-0.153,0.226-0.235,0.334c-0.164,0.213-0.339,0.285-0.571,0.401
		c-0.416,0.209-0.988,0.784-1.176,1.216c-0.248,0.574,0.203,0.822,0.686,0.76C113.338,81.536,113.821,81.617,114.068,82.034
		C112.101,82.464,113.762,81.517,114.068,82.034z"/>
	<path fill-rule="evenodd" clip-rule="evenodd" fill="#FFFFFF" d="M89.788,78.701c-1.248-0.174-2.354-0.586-3.253-1.49
		c-0.784-0.787-1.969-1.711-1.551-2.985c0.13-0.397,0.497-0.619,0.866-0.767c0.704-0.282,1.418-0.537,2.12-0.823
		c0.66-0.269,1.318-0.542,1.98-0.805c0.669-0.266,1.379-0.465,1.995-0.843c0.52-0.318,1.794-1.154,2.103-0.179
		c0.157,0.496,0.176,1.012,0.372,1.502c0.206,0.515,0.513,0.983,0.886,1.393c0.349,0.384,0.753,0.716,1.177,1.015
		c0.328,0.229,1.244,0.646,0.619,1.064c-1.163,0.778-2.589,1.323-3.88,1.854C92.12,78.09,90.979,78.629,89.788,78.701
		C88.695,78.548,90.097,78.682,89.788,78.701z"/>
	<path fill-rule="evenodd" clip-rule="evenodd" fill="#FFFFFF" d="M96.342,86.218c-1.042,0.045-2.052-0.286-2.697-1.138
		c-0.378-0.5-0.674-1.087-0.988-1.63c-0.343-0.592-0.742-1.241-0.883-1.917c-0.292-1.401,0.86-2.067,1.874-2.718
		c0.623-0.399,1.246-0.799,1.866-1.202c0.621-0.404,1.233-0.922,1.942-1.156c0.429-0.141,0.728-0.211,0.811,0.327
		c0.1,0.646,0.337,1.273,0.568,1.882c0.203,0.535,0.436,1.061,0.74,1.546c0.352,0.56,0.834,0.924,1.262,1.409
		c0.414,0.472,0.039,0.89-0.271,1.291c-0.418,0.538-0.799,1.103-1.228,1.632C98.573,85.487,97.636,86.313,96.342,86.218
		C95.115,86.272,97.258,86.285,96.342,86.218z"/>
	<path fill-rule="evenodd" clip-rule="evenodd" fill="#FFFFFF" d="M76.183,78.51c-1.14-0.118-2.343-0.111-3.132-1.08
		c-0.608-0.747-0.754-2.071-0.246-2.906c0.59-0.97,2.052-1.341,3.042-1.718c0.663-0.252,1.338-0.465,2.032-0.615
		c0.712-0.154,1.548-0.409,2.277-0.41c0.541,0,1.102,0.566,1.412,0.959c0.356,0.452,0.847,0.78,1.419,0.88
		c0.359,0.062,0.937-0.054,1.083,0.395c0.07,0.214,0.013,0.432,0.012,0.651c0,0.325,0.079,0.646,0.111,0.968
		c0.028,0.289,0.01,0.545-0.252,0.714c-0.494,0.317-1.116,0.495-1.662,0.702c-1.355,0.516-2.741,0.957-4.152,1.294
		C77.479,78.5,76.843,78.471,76.183,78.51C75.159,78.404,76.623,78.483,76.183,78.51z"/>
	<path fill-rule="evenodd" clip-rule="evenodd" fill="#FFFFFF" d="M69.196,66.124c-1.301,0.079-2.59-0.186-3.784-0.697
		c-1.046-0.448-2.317-1.066-3.042-1.971c-0.304-0.38-0.54-0.915-0.471-1.411c0.084-0.605,0.714-0.405,1.124-0.315
		c1.457,0.319,2.955,0.397,4.443,0.351c1.492-0.048,3-0.159,4.487-0.293c0.726-0.065,1.422-0.221,2.138-0.34
		c0.35-0.058,0.706-0.048,1.058-0.084c0.303-0.031,0.673-0.231,0.97-0.092c0.461,0.217,0.417,0.83,0.456,1.247
		c0.066,0.697,0.206,1.388,0.454,2.045c0.171,0.451-0.001,0.687-0.475,0.773c-0.659,0.12-1.34,0.302-2.007,0.364
		C72.766,65.864,70.981,66.01,69.196,66.124C66.961,66.26,69.42,66.109,69.196,66.124z"/>
	<path fill-rule="evenodd" clip-rule="evenodd" fill="#FFFFFF" d="M65.712,46.145c3.058-0.109,6.137,0.175,9.191,0.298
		c0.732,0.029,1.464,0.065,2.195,0.116c0.337,0.024,0.647,0.098,0.979,0.147c0.236,0.035,0.517-0.006,0.683,0.208
		c0.288,0.371-0.014,1.131-0.074,1.529c-0.057,0.375-0.061,0.877-0.321,1.184c-0.207,0.244-0.576,0.271-0.873,0.291
		c-0.752,0.051-1.513,0.056-2.268,0.065c-1.533,0.018-3.068-0.024-4.591-0.197c-0.645-0.073-1.274-0.114-1.922-0.128
		c-0.295-0.006-0.592-0.029-0.875-0.117c-0.341-0.106-0.613-0.317-0.977-0.359c-0.633-0.073-1.178-0.031-1.789-0.257
		c-0.622-0.231-1.252-0.445-1.848-0.739c-0.388-0.192-2.702-1.704-1.364-2c0.522-0.115,1.107-0.04,1.637-0.039
		C64.234,46.148,64.974,46.145,65.712,46.145C68.294,46.053,64.666,46.145,65.712,46.145z"/>
	<path fill-rule="evenodd" clip-rule="evenodd" fill="#FFFFFF" d="M67.541,67.458c-0.035-0.481,0.228-0.702,0.684-0.738
		c0.753-0.059,1.511-0.093,2.265-0.138c1.496-0.089,2.963-0.053,4.438-0.357c1.264-0.26,2.686-0.884,3.915-0.225
		c0.708,0.38,0.301,0.62,0.074,1.189c-0.247,0.617-0.08,1.283,0.107,1.892c0.122,0.395,0.456,0.776,0.429,1.211
		c-0.022,0.364-0.512,0.426-0.789,0.473c-1.466,0.251-2.97,0.311-4.455,0.292c-1.291-0.016-2.705,0.038-3.929-0.431
		c-0.932-0.356-2.141-1.172-2.522-2.137C67.628,68.157,67.678,67.785,67.541,67.458C67.495,66.82,67.7,67.838,67.541,67.458z"/>
	<path fill-rule="evenodd" clip-rule="evenodd" fill="#FFFFFF" d="M63.028,49.186c-1.387,0.45-2.838,0.343-4.272,0.32
		c-1.52-0.024-3.044-0.001-4.559-0.162c-1.441-0.153-2.905-0.439-4.271-0.929c-0.579-0.208-1.133-0.477-1.714-0.681
		c-0.624-0.219-0.988-0.515-1.444-0.975c-0.213-0.215-0.413-0.371-0.326-0.704c0.06-0.228,0.276-0.194,0.46-0.192
		c0.788,0.006,1.576-0.014,2.364-0.003c1.524,0.019,3.044,0.182,4.568,0.22c1.532,0.038,3.062,0.084,4.593,0.146
		c0.533,0.021,1.445-0.131,1.9,0.202c0.221,0.162,0.339,0.48,0.508,0.694c0.213,0.269,0.46,0.508,0.726,0.725
		c0.305,0.249,0.632,0.468,0.966,0.677C62.785,48.685,63.125,48.819,63.028,49.186C61.952,49.534,63.108,48.886,63.028,49.186z"/>
	<path fill-rule="evenodd" clip-rule="evenodd" fill="#FFFFFF" d="M116.062,103.98c0.068-0.637,0.16-1.277,0.354-1.891
		c0.205-0.654,0.562-1.245,0.852-1.862c0.277-0.589,0.525-1.192,0.711-1.816c0.199-0.675,0.223-1.352,0.359-2.033
		c0.094-0.463,0.379-0.854,0.785-1.096c0.481-0.287,1.166-0.504,1.707-0.645c0.266-0.068,0.982-0.187,1.047,0.23
		c0.088,0.578-0.443,1.208-0.628,1.73c-0.456,1.285-0.424,2.663-0.099,3.973c0.122,0.499,0.299,0.979,0.453,1.467
		c0.08,0.256,0.17,0.553,0.057,0.812c-0.124,0.283-0.432,0.463-0.688,0.61c-0.543,0.31-1.126,0.545-1.665,0.863
		c-0.515,0.304-1.001,0.659-1.423,1.082c-0.203,0.203-0.751,1.112-1.102,0.707C116.336,105.595,116.249,104.622,116.062,103.98
		C116.174,102.942,116.201,104.458,116.062,103.98z"/>
	<path fill-rule="evenodd" clip-rule="evenodd" fill="#FFFFFF" d="M122.104,101.23c-0.618-1.267-0.724-2.702-0.332-4.052
		c0.396-1.366,1.055-2.651,1.534-3.989c0.332-0.93,0.535-2.027,1.455-2.578c0.756-0.453,1.709-0.347,2.532-0.173
		c0.354,0.075,0.999,0.181,0.797,0.693c-0.101,0.256-0.324,0.458-0.487,0.675c-0.211,0.278-0.402,0.571-0.567,0.879
		c-0.673,1.264-0.622,2.53-0.413,3.904c0.072,0.471,0.119,0.995-0.203,1.391c-0.356,0.44-1.054,0.614-1.533,0.896
		c-0.496,0.291-0.963,0.631-1.376,1.03c-0.21,0.201-0.405,0.417-0.581,0.647c-0.159,0.205-0.297,0.573-0.566,0.651
		C122.279,101.227,122.192,101.235,122.104,101.23C121.419,99.825,122.365,101.239,122.104,101.23z"/>
	<path fill-rule="evenodd" clip-rule="evenodd" fill="#FFFFFF" d="M60.639,80.61c0.786-0.783,1.601-1.572,2.601-2.079
		c0.512-0.259,1.065-0.435,1.636-0.507c0.653-0.083,1.224-0.282,1.856-0.453c0.676-0.183,1.359-0.338,2.039-0.51
		c0.669-0.168,1.316-0.421,1.981-0.589c0.612-0.155,0.885,0.243,1.192,0.686c0.363,0.525,0.842,0.956,1.374,1.307
		c0.268,0.177,1.066,0.49,0.611,0.88c-0.489,0.417-1.125,0.488-1.724,0.642c-0.664,0.17-1.302,0.423-1.971,0.583
		c-0.675,0.162-1.36,0.286-2.047,0.387c-1.389,0.204-2.806,0.377-4.211,0.378c-0.712,0-1.426-0.056-2.124-0.199
		C61.508,81.066,60.743,81.062,60.639,80.61C61.904,79.351,60.703,80.888,60.639,80.61z"/>
	<path fill-rule="evenodd" clip-rule="evenodd" fill="#FFFFFF" d="M75.138,60.434c-0.125,0.487-1.17,0.415-1.555,0.466
		c-0.792,0.106-1.584,0.203-2.379,0.283c-1.526,0.154-3.061,0.248-4.596,0.229c-1.398-0.018-2.836-0.083-4.198-0.421
		c-0.63-0.156-1.243-0.38-1.814-0.69c-0.35-0.19-0.923-0.471-1.07-0.878c-0.215-0.597,0.461-0.535,0.799-0.52
		c0.726,0.03,1.502-0.121,2.228-0.173c1.481-0.105,2.965-0.203,4.438-0.401c0.707-0.096,1.411-0.215,2.108-0.369
		c0.559-0.124,1.395-0.538,1.961-0.293c0.511,0.219,0.924,0.858,1.324,1.234c0.518,0.488,1.078,0.814,1.739,1.072
		C74.468,60.106,74.819,60.238,75.138,60.434C75.061,60.735,74.504,60.045,75.138,60.434z"/>
	<path fill-rule="evenodd" clip-rule="evenodd" fill="#FFFFFF" d="M50.922,83.435c-0.723-0.06-1.611-0.085-1.185-1.013
		c0.479-1.042,1.182-2.01,1.916-2.885c0.675-0.806,1.475-1.851,2.668-1.469c1.278,0.41,2.617,0.576,3.953,0.664
		c0.638,0.042,1.278,0.067,1.917,0.095c0.2,0.009,1.235,0.065,0.72,0.529c-0.376,0.34-0.927,0.645-1.36,0.916
		c-0.521,0.326-1.111,0.551-1.656,0.833c-1.112,0.578-2.147,1.274-3.361,1.627C53.382,83.067,52.119,83.345,50.922,83.435
		C50.773,83.423,51.11,83.421,50.922,83.435z"/>
	<path fill-rule="evenodd" clip-rule="evenodd" fill="#FFFFFF" d="M57.994,152.332c1.082-0.333,2.22-0.42,3.346-0.357
		c0.963,0.055,1.845,0.176,2.283,1.146c0.448,0.989,0.422,2.25,0.369,3.312c-0.045,0.897-0.037,1.841-0.891,2.361
		c-0.824,0.501-1.873,0.56-2.808,0.503c-0.5-0.03-1.127,0.02-1.608-0.119c-0.474-0.137-0.175-0.643-0.036-0.922
		c0.495-0.996,0.731-1.91,0.519-3.02C58.97,154.198,58.448,153.275,57.994,152.332C59.4,151.899,58.235,152.832,57.994,152.332z"/>
	<path fill-rule="evenodd" clip-rule="evenodd" fill="#FFFFFF" d="M84.174,55.169c-0.287,0.488-0.85,0.612-1.356,0.761
		c-0.716,0.211-1.443,0.391-2.18,0.519c-1.452,0.253-2.963,0.303-4.436,0.306c-1.479,0.002-2.956-0.133-4.386-0.523
		c-0.604-0.165-1.2-0.381-1.736-0.708c-0.485-0.296-1.232-0.556-1.574-1.021c-0.424-0.577,0.195-0.743,0.642-0.732
		c0.784,0.02,1.583,0.191,2.366,0.261c1.532,0.136,3.073,0.195,4.611,0.152c1.449-0.04,2.917-0.331,4.365-0.224
		C81.801,54.057,83.055,54.49,84.174,55.169C83.978,55.502,82.541,54.177,84.174,55.169z"/>
	<path fill-rule="evenodd" clip-rule="evenodd" fill="#FFFFFF" d="M138.455,111.814c0.625,0.618,1.053,1.379,1.068,2.272
		c0.016,0.956-0.006,2.06-0.232,2.99c-0.222,0.91-0.759,1.646-1.569,2.118c-0.331,0.192-0.685,0.342-1.038,0.489
		c-0.199,0.082-0.398,0.163-0.596,0.249c-0.226,0.1-0.43-0.112-0.595-0.23c-0.708-0.504-1.211-1.218-1.52-2.023
		c-0.146-0.382-0.253-0.778-0.335-1.178c-0.111-0.535,0.223-0.619,0.619-0.807c0.397-0.188,0.465-0.607,0.679-0.952
		c0.243-0.393,0.573-0.724,0.94-1.002c0.402-0.305,0.855-0.531,1.262-0.83C137.6,112.572,138.02,112.183,138.455,111.814
		C139.276,112.628,137.825,112.349,138.455,111.814z"/>
	<path fill-rule="evenodd" clip-rule="evenodd" fill="#FFFFFF" d="M88.122,152.925c0.978,0,1.961-0.021,2.734,0.679
		c0.756,0.685,0.863,1.728,0.814,2.688c-0.057,1.127-0.502,2.339-1.519,2.948c-0.91,0.545-1.932,0.304-2.924,0.233
		c-0.274-0.02-0.904,0.053-0.962-0.33c-0.036-0.234,0.02-0.487,0.051-0.719c0.069-0.506,0.132-1.013,0.179-1.522
		c0.064-0.687,0.103-1.38,0.047-2.069c-0.041-0.501-0.228-1.029-0.17-1.534C86.449,152.621,88.122,152.969,88.122,152.925
		C88.494,152.925,88.122,152.917,88.122,152.925z"/>
	<path fill-rule="evenodd" clip-rule="evenodd" fill="#FFFFFF" d="M112.15,95.953c-0.141-2.071,1.082-3.559,2.736-4.637
		c0.354-0.23,2.086-1.348,2.43-0.671c0.178,0.352-0.134,0.953-0.188,1.305c-0.104,0.686-0.074,1.386,0.023,2.071
		c0.101,0.71,0.358,1.556,0.084,2.259c-0.24,0.621-0.939,0.966-1.482,1.278c-0.482,0.278-0.99,0.468-1.488,0.712
		c-0.335,0.165-0.721,0.516-1.127,0.428c-0.363-0.079-0.549-0.519-0.679-0.82C112.195,97.268,112.205,96.601,112.15,95.953
		C112.014,93.933,112.205,96.601,112.15,95.953z"/>
	<path fill-rule="evenodd" clip-rule="evenodd" fill="#FFFFFF" d="M143.16,103.808c0.773,0.611,1.633,1.099,2.428,1.678
		c0.377,0.275,0.738,0.57,1.064,0.903c0.166,0.171,0.321,0.349,0.465,0.537c0.131,0.171,0.272,0.526,0.498,0.591
		c0.305,0.088,0.628-0.275,0.867,0.114c0.179,0.291,0.167,0.737,0.197,1.062c0.117,1.242,0.104,2.564-0.26,3.771
		c-0.267,0.887-1.346,0.141-1.811-0.211c-0.812-0.619-1.359-1.496-1.965-2.301c-0.677-0.896-1.094-1.948-1.451-3.005
		c-0.17-0.503-0.418-1.044-0.451-1.578C142.71,104.82,142.922,104.292,143.16,103.808
		C144.596,104.94,142.752,104.636,143.16,103.808z"/>
	<path fill-rule="evenodd" clip-rule="evenodd" fill="#FFFFFF" d="M125.631,103.828c-0.035-1.16,0.271-2.278,0.624-3.371
		c0.157-0.481,0.265-1.035,0.528-1.47c0.279-0.461,0.705-0.793,0.965-1.28c0.212-0.4,0.336-0.849,0.655-1.184
		c0.312-0.33,0.743-0.554,1.192-0.623c0.32-0.049,0.93-0.058,0.854,0.419c-0.083,0.538-0.504,1.093-0.693,1.61
		c-0.185,0.502-0.324,1.021-0.391,1.553c-0.076,0.608,0.015,1.187,0.022,1.792c0.01,0.595-0.232,0.995-0.404,1.537
		c-0.157,0.5-0.023,1.025-0.15,1.526c-0.098,0.384-0.352,0.687-0.693,0.885c-0.543,0.313-1.134,0.609-1.707,0.862
		c-0.465,0.205-0.557-0.125-0.618-0.525C125.729,104.991,125.541,104.405,125.631,103.828
		C125.583,102.203,125.54,104.411,125.631,103.828z"/>
	<path fill-rule="evenodd" clip-rule="evenodd" fill="#FFFFFF" d="M148.246,102.033c1.627,0.372,3.842,0.474,4.962,1.892
		c0.562,0.711,0.605,1.567,0.749,2.426c0.106,0.647,0.401,2.005-0.258,2.487c-0.545,0.398-1.514-0.308-2.037-0.461
		c-0.865-0.252-1.646-0.498-2.278-1.181c-0.536-0.579-0.853-1.333-0.905-2.118c-0.035-0.488-0.023-0.961-0.1-1.449
		C148.295,103.101,148.205,102.57,148.246,102.033C149.393,102.295,148.172,103.006,148.246,102.033z"/>
	<path fill-rule="evenodd" clip-rule="evenodd" fill="#FFFFFF" d="M120.699,106.702c0.103-0.911,0.328-1.825,0.885-2.573
		c0.297-0.402,0.644-0.726,0.873-1.181c0.214-0.426,0.372-0.878,0.597-1.301c0.22-0.415,0.483-0.809,0.812-1.146
		c0.232-0.238,0.759-0.797,1.134-0.715c0.491,0.107,0.13,0.919,0.071,1.209c-0.121,0.588-0.205,1.184-0.249,1.783
		c-0.087,1.198-0.009,2.405,0.235,3.582c0.212,1.029-0.234,1.627-1.176,2.004c-0.494,0.198-0.986,0.412-1.443,0.688
		c-0.271,0.164-0.8,0.75-1.104,0.361c-0.238-0.305-0.348-0.846-0.459-1.214C120.73,107.712,120.661,107.209,120.699,106.702
		C120.803,105.779,120.621,107.75,120.699,106.702z"/>
	<path fill-rule="evenodd" clip-rule="evenodd" fill="#FFFFFF" d="M124.429,85.915c-0.028,0.458-0.462,0.765-0.716,1.108
		c-0.317,0.426-0.574,0.896-0.734,1.403c-0.352,1.115-0.049,2.262-0.182,3.399c-0.1,0.843-0.562,1.521-1.318,1.914
		c-0.471,0.246-0.991,0.362-1.502,0.5c-0.257,0.069-0.514,0.145-0.76,0.247c-0.23,0.095-0.496,0.333-0.756,0.319
		c-0.457-0.026-0.497-0.886-0.542-1.193c-0.092-0.616-0.124-1.281,0.011-1.894c0.227-1.031,0.988-1.532,1.82-2.059
		c0.936-0.592,1.54-1.475,2.194-2.339C122.441,86.663,123.49,85.515,124.429,85.915C124.403,86.328,124.134,85.789,124.429,85.915z"
		/>
	<path fill-rule="evenodd" clip-rule="evenodd" fill="#FFFFFF" d="M136.268,98.539c0.325,0.375,0.517,0.784,0.914,1.098
		c0.332,0.263,0.565,0.616,0.66,1.029c0.199,0.871-0.031,1.917-0.195,2.778c-0.194,1.017-0.582,1.976-1.312,2.728
		c-0.349,0.36-0.747,0.669-1.131,0.988c-0.353,0.293-0.74,0.689-1.098,0.158c-0.896-1.35-1.134-2.935-0.59-4.487
		c0.273-0.782,0.733-1.333,1.337-1.881C135.566,100.302,136.065,99.482,136.268,98.539
		C136.584,98.904,136.032,99.637,136.268,98.539z"/>
	<path fill-rule="evenodd" clip-rule="evenodd" fill="#FFFFFF" d="M140.423,114.74c0.579,0.039,0.901,0.422,1.278,0.807
		c0.422,0.431,0.68,0.492,1.032-0.039c0.347-0.523,0.916-0.852,1.257-1.381c0.395-0.617,0.605-1.359,0.887-2.031
		c0.993,0.881,1.48,2.293,1.566,3.59c0.095,1.434-0.529,2.759-1.338,3.905c-0.438,0.62-0.893,0.662-1.484,0.213
		c-0.557-0.423-1.091-0.88-1.57-1.391C141.232,117.539,140.039,116.025,140.423,114.74
		C141.09,114.785,140.244,115.337,140.423,114.74z"/>
	<path fill-rule="evenodd" clip-rule="evenodd" fill="#FFFFFF" d="M124.492,110.652c0.601-1.455,0.938-3.08,2.381-3.968
		c0.417-0.256,0.881-0.42,1.297-0.68c0.215-0.133,0.42-0.28,0.615-0.44c0.138-0.114,0.4-0.481,0.592-0.486
		c0.578-0.015,0.133,0.888,0.055,1.096c-0.207,0.546-0.508,1.047-0.688,1.604c-0.329,1.012-0.367,2.087-0.126,3.122
		c0.195,0.848,0.121,1.487-0.77,1.832c-0.513,0.197-1.039,0.347-1.543,0.565c-0.362,0.159-0.928,0.584-1.265,0.15
		c-0.228-0.293-0.267-0.816-0.347-1.17C124.571,111.744,124.496,111.202,124.492,110.652
		C125.086,109.213,124.5,111.705,124.492,110.652z"/>
	<path fill-rule="evenodd" clip-rule="evenodd" fill="#FFFFFF" d="M130.431,104.063c-0.076-0.647-0.204-1.566,0.417-2.009
		c0.287-0.204,0.658-0.251,1.002-0.258c0.2-0.004,0.759-0.074,0.893,0.139c0.164,0.263-0.035,0.876-0.063,1.15
		c-0.062,0.625-0.089,1.256-0.037,1.884c0.052,0.618,0.185,1.227,0.415,1.805c0.183,0.454,0.426,0.902,0.479,1.395
		c0.094,0.884-0.674,1.287-1.363,1.618c-0.59,0.283-1.187,0.551-1.781,0.823c-0.265,0.12-0.822,0.473-1.051,0.102
		c-0.236-0.385-0.139-1.109-0.12-1.541c0.026-0.602,0.143-1.201,0.421-1.74C130.199,106.35,130.578,105.302,130.431,104.063
		C130.408,103.879,130.566,105.216,130.431,104.063z"/>
	<path fill-rule="evenodd" clip-rule="evenodd" fill="#FFFFFF" d="M110.133,87.82c-0.163,0.514-0.15,1.049-0.044,1.573
		c0.104,0.503,0.2,1.075,0.369,1.559c0.193,0.556,0.601,0.113,0.862-0.087c0.361-0.275,0.854-0.651,1.333-0.489
		c0.675,0.227,0.456,1.508,0.155,1.95c-0.307,0.453-0.645,0.885-0.934,1.35c-0.281,0.451-0.305,0.908-0.492,1.38
		c-0.318,0.807-1.668,0.393-2.221,0.103c-0.728-0.382-1.694-1.266-1.757-2.131c-0.076-1.074,0.627-2.292,1.067-3.235
		C108.842,89,109.146,87.981,110.133,87.82C109.774,88.95,109.279,87.96,110.133,87.82z"/>
	<path fill-rule="evenodd" clip-rule="evenodd" fill="#FFFFFF" d="M141.889,155.69c0,0.95-0.049,1.835-0.607,2.645
		c-0.486,0.702-1.238,1.184-2.072,1.365c-0.392,0.086-0.802,0.106-1.201,0.122c-0.188,0.007-0.496,0.042-0.647-0.102
		c-0.312-0.293,0.343-1.352,0.45-1.62c0.431-1.087,0.681-2.249,0.611-3.421c-0.032-0.545-0.162-1.057-0.276-1.586
		c-0.054-0.247-0.085-0.514,0.22-0.573c0.928-0.183,2.043,0.255,2.829,0.721c0.356,0.211,0.519,0.592,0.603,0.979
		C141.832,154.382,141.937,155.69,141.889,155.69C141.889,155.95,141.883,155.69,141.889,155.69z"/>
	<path fill-rule="evenodd" clip-rule="evenodd" fill="#FFFFFF" d="M56.123,99.458c-0.261,0.692-0.522,1.384-0.783,2.076
		c-0.122,0.324-0.234,0.652-0.379,0.966c-0.146,0.317-0.136,0.603-0.208,0.934c-0.242,1.125-1.652,1.278-2.586,1.422
		c-1.434,0.222-2.902,0.167-4.295-0.256c-1.134-0.346-2.092-1.324-2.918-2.139c-0.418-0.413-0.809-0.858-1.133-1.349
		c-0.362-0.547-0.511-1.155-0.811-1.724c-0.125-0.236-0.378-0.39-0.539-0.602c-0.16-0.211-0.283-0.446-0.382-0.691
		c-0.214-0.531-0.316-1.098-0.503-1.639c-0.214-0.618-0.386-1.202-0.468-1.855c-0.089-0.709-0.138-1.432-0.355-2.118
		c-0.097-0.303-0.202-0.558-0.2-0.881c0.001-0.317,0.025-0.629,0.008-0.946c-0.043-0.8-0.104-1.6-0.16-2.399
		c-0.107-1.54-0.164-3.076-0.123-4.619c0.04-1.501,0.066-3.055,0.291-4.542c0.207-1.364,0.637-2.741,0.994-4.074
		c0.363-1.356,0.859-2.677,1.5-3.928c0.593-1.157,1.229-2.343,1.951-3.426c0.729-1.096,1.741-1.967,2.737-2.816
		c2.057-1.751,4.436-3.177,7.097-3.784c0.687-0.156,1.368-0.183,2.068-0.226c0.751-0.045,1.548-0.214,2.29-0.028
		c0.549,0.138,1.097,0.365,1.408,0.86c0.229,0.364,0.464,1.1,0.038,1.417c-0.462,0.344-1.26,0.271-1.808,0.354
		c-0.726,0.11-1.445,0.259-2.152,0.456c-1.322,0.366-2.573,0.912-3.767,1.584c-2.34,1.32-4.109,3.138-5.587,5.362
		c-0.744,1.118-1.386,2.307-1.853,3.567c-0.507,1.372-0.663,2.815-0.864,4.254c-0.202,1.447-0.449,2.879-0.567,4.337
		c-0.118,1.465-0.158,2.936-0.132,4.405c0.048,2.728,0.379,5.479,1.523,7.986c0.861,1.887,2.21,3.71,4.234,4.438
		c1.057,0.38,2.222,0.431,3.32,0.211c0.655-0.131,1.288-0.351,1.915-0.578C55.361,99.31,55.662,99.352,56.123,99.458
		C55.773,100.384,55.355,99.28,56.123,99.458z"/>
	<path fill-rule="evenodd" clip-rule="evenodd" fill="#FFFFFF" d="M142.521,66.247c-0.187-0.514-0.43-1.022-0.273-1.581
		c0.129-0.459,0.521-0.742,0.979-0.826c1.234-0.227,2.787-0.073,3.852,0.618c0.469,0.304,0.857,0.713,1.166,1.176
		c0.338,0.508,0.529,1.105,0.911,1.585c0.116,0.146,0.891,0.373,0.776,0.042c-0.113-0.324-0.232-0.994-0.014-1.318
		c0.178-0.266,0.776-0.334,1.055-0.389c0.647-0.127,1.298-0.046,1.881,0.271c0.506,0.275,0.887,0.693,1.176,1.186
		c0.25,0.426,0.707,1.115,0.694,1.621c-0.014,0.562-0.637,0.864-1.065,1.089c-0.601,0.315-1.248,0.537-1.916,0.658
		c-1.406,0.256-2.884,0.057-4.29-0.108c-1.505-0.176-3.005-0.409-4.517-0.523c-1.5-0.114-3.008-0.087-4.506,0.037
		c-1.494,0.125-2.956,0.405-4.436,0.64c-1.4,0.223-2.877,0.366-4.277,0.065c-1.289-0.277-2.152-1.312-3.395-1.699
		c-0.359-0.112-0.936-0.193-1.015-0.646c-0.103-0.593,0.354-1.116,0.85-1.352c0.521-0.249,1.093-0.479,1.685-0.406
		c0.65,0.081,1.162,0.575,1.764,0.806c0.264,0.101,0.493-0.176,0.36-0.424c-0.116-0.219-0.317-0.342-0.389-0.598
		c-0.142-0.512,0.753-0.586,1.071-0.637c1.389-0.221,2.707,0.2,3.686,1.212c0.269,0.278,0.533,0.562,0.801,0.84
		c0.312,0.325,0.542-0.077,0.485-0.383c-0.109-0.587-0.912-1.063-0.658-1.711c0.251-0.637,1.253-0.983,1.853-1.14
		c0.768-0.202,1.573-0.165,2.332,0.056c0.692,0.201,1.523,0.514,1.961,1.12C141.497,66.068,141.76,66.518,142.521,66.247
		C142.42,65.965,141.901,66.468,142.521,66.247z"/>
	<path fill-rule="evenodd" clip-rule="evenodd" fill="#FFFFFF" d="M89.491,95.766c-1.355,0.015-2.114-0.833-2.948-1.782
		c-0.919-1.045-1.602-2.273-2.096-3.572c-0.43-1.13-0.621-2.275,0.293-3.221c0.418-0.432,0.972-0.725,1.477-1.042
		c0.625-0.393,1.256-0.774,1.914-1.11c0.599-0.306,1.214-0.57,1.805-0.894c0.457-0.25,1.061-0.681,1.609-0.652
		c0.436,0.024,0.69,0.503,0.908,0.816c0.357,0.514,0.682,1.062,1.118,1.516c0.738,0.77,1.72,1.176,2.787,1.177
		c0.365,0.001,0.811-0.106,1.162,0.028c0.293,0.112,0.353,0.493,0.416,0.759c0.159,0.667,1.098,1.373,0.472,2.028
		c-0.839,0.878-1.853,1.646-2.784,2.425c-0.969,0.811-1.964,1.594-3.01,2.306C91.67,95.19,90.665,95.751,89.491,95.766
		C88.687,95.774,90.493,95.753,89.491,95.766z"/>
	<path fill-rule="evenodd" clip-rule="evenodd" fill="#FFFFFF" d="M106.371,106.435c-0.268-0.421-0.629-0.781-0.837-1.24
		c-0.267-0.585-0.093-1.268-0.134-1.89c-0.047-0.707,0.094-1.312,0.177-2.004c0.087-0.729,0.117-1.455,0.233-2.181
		c0.232-1.44,0.51-2.879,0.984-4.262c0.209-0.608,0.822,0.036,1.078,0.235c0.529,0.414,1.123,0.746,1.754,0.979
		c0.51,0.188,1.176,0.189,1.636,0.47c0.496,0.305,0.591,1.054,0.772,1.554c0.221,0.614,0.446,1.235,0.71,1.832
		c0.097,0.22,0.238,0.41,0.458,0.519c0.206-0.193,0.331-0.451,0.453-0.7c0.271-0.549,0.574-0.78,1.122-1.047
		c0.614-0.299,1.253-0.563,1.813-0.954c0.167-0.116,0.361-0.299,0.582-0.259c0.268,0.049,0.404,0.326,0.36,0.572
		c-0.112,0.623-0.487,1.299-0.745,1.874c-0.306,0.68-0.73,1.314-0.979,2.016c-0.237,0.667-0.316,1.378-0.28,2.083
		c0.032,0.626,0.145,1.188-0.248,1.734c-0.446,0.62-0.965,1.224-1.487,1.782c-1.003,1.072-2.303,1.065-3.63,0.65
		c-0.695-0.217-1.359-0.519-2.015-0.833c-0.312-0.15-0.766-0.281-0.995-0.539C106.949,106.595,106.697,106.413,106.371,106.435
		C105.949,105.773,106.771,106.409,106.371,106.435z"/>
	<path fill-rule="evenodd" clip-rule="evenodd" fill="#FFFFFF" d="M91.623,79.214c-0.007,0.253-0.149,0.4-0.292,0.589
		c-0.172,0.227-0.29,0.539-0.363,0.812c-0.08,0.298-0.091,0.613-0.001,0.911c0.086,0.285,0.32,0.55,0.251,0.865
		c-0.105,0.49-0.873,0.722-1.252,0.932c-0.645,0.358-1.284,0.729-1.933,1.08c-2.418,1.308-5.384,2.38-8.153,1.587
		c-0.498-0.143-0.94-0.417-1.254-0.833c-0.414-0.548-0.813-1.061-1.276-1.573c-0.91-1.008-0.975-2.151-0.933-3.447
		c0.021-0.638,0.247-0.697,0.831-0.801c0.742-0.132,1.472-0.321,2.191-0.542c1.36-0.418,2.725-0.902,4.028-1.472
		c0.618-0.271,1.222-0.597,1.887-0.257c0.316,0.162,0.549,0.435,0.817,0.66c0.316,0.264,0.659,0.499,1.018,0.703
		c0.63,0.358,1.308,0.625,2,0.834c0.391,0.119,0.807,0.154,1.211,0.09C90.817,79.288,91.195,79.091,91.623,79.214
		C91.613,79.574,91.305,79.123,91.623,79.214z"/>
	<path fill-rule="evenodd" clip-rule="evenodd" fill="#FFFFFF" d="M76.434,71.701c-0.803,0.841-2.058,1.052-3.062,1.576
		c-0.423,0.221-0.829,0.493-1.101,0.894c-0.331,0.487-0.366,1.044-0.891,1.398c-0.479,0.323-1.048,0.329-1.595,0.451
		c-0.73,0.164-1.434,0.422-2.138,0.671c-1.405,0.494-2.852,0.796-4.317,1.049c-1.454,0.251-2.892,0.518-4.375,0.419
		c-0.693-0.046-1.388-0.109-2.08-0.175c-0.644-0.061-1.528-0.075-2.092-0.423c-0.946-0.584,1.618-2.103,2.042-2.364
		c1.193-0.734,2.414-1.426,3.667-2.054c2.404-1.205,5.128-2.478,7.854-2.628c0.675-0.038,1.271,0.417,1.888,0.634
		c0.667,0.235,1.361,0.382,2.062,0.467C73.669,71.781,75.056,71.701,76.434,71.701C75.708,72.462,76.039,71.701,76.434,71.701z"/>
	<path fill-rule="evenodd" clip-rule="evenodd" fill="#FFFFFF" d="M105.22,70.579c-0.331-0.5-0.828,0.297-1.06,0.513
		c-0.488,0.456-1.04,0.832-1.59,1.206c-1.062,0.72-1.979,1.664-3.229,2.052c-1.195,0.372-2.257,0.34-3.103-0.667
		c-0.815-0.972-1.246-2.205-1.253-3.467c-0.003-0.529-0.014-1.238,0.296-1.694c0.386-0.564,0.944-1.086,1.464-1.526
		c1.072-0.91,2.325-1.628,3.461-2.458c0.551-0.403,1.094-0.819,1.617-1.258c0.439-0.368,0.92-0.995,1.505-1.129
		c0.429-0.1,0.625,0.667,0.742,0.938c0.275,0.634,0.542,1.271,0.821,1.902c0.096,0.213,0.357,0.664,0.541,0.652
		c-0.178,1.083,1.172,1.857,1.053,2.925c-0.044,0.397-0.437,0.73-0.69,1.003C105.633,69.744,104.784,70.321,105.22,70.579z"/>
	<path fill-rule="evenodd" clip-rule="evenodd" fill="#FFFFFF" d="M94.622,67.903c-0.161,0.496-0.506,0.791-0.898,1.105
		c-0.552,0.443-1.13,0.854-1.738,1.218c-1.167,0.7-2.431,1.089-3.696,1.565c-1.254,0.471-2.53,0.957-3.882,1.023
		c-1.061,0.052-2.203-0.069-2.916-0.944c-0.356-0.438-0.647-0.945-0.979-1.403c-0.363-0.5-0.708-1.024-0.869-1.626
		c-0.258-0.964-0.047-1.601,0.905-1.973c1.313-0.514,2.732-0.526,4.112-0.713c1.439-0.195,2.901-0.413,4.353-0.489
		c0.455-0.023,0.918,0.012,1.335,0.208c0.516,0.242,0.824,0.706,1.236,1.075C92.424,67.702,93.498,68.054,94.622,67.903
		C94.427,68.503,93.105,68.106,94.622,67.903z"/>
	<path fill-rule="evenodd" clip-rule="evenodd" fill="#FFFFFF" d="M81.414,58.23c1.117-0.11,2.157,0.235,2.905,1.085
		c0.869,0.987,1.744,1.78,2.877,2.465c0.537,0.325,0.968,0.465,1.598,0.44c0.362-0.014,0.555,0.064,0.598,0.442
		c0.033,0.279,0.027,0.561,0.058,0.84c0.028,0.261,0.13,0.504,0.159,0.764c0.048,0.414-0.274,0.534-0.625,0.612
		c-1.464,0.325-2.971,0.354-4.459,0.493c-1.483,0.138-2.954,0.415-4.438,0.132c-1.183-0.225-2.256-0.649-2.621-1.884
		c-0.177-0.597-0.203-1.224-0.144-1.841c0.059-0.62,0.093-1.374,0.374-1.939c0.291-0.586,0.846-0.858,1.416-1.117
		C79.837,58.392,80.605,58.135,81.414,58.23C82.664,58.107,80.397,58.11,81.414,58.23z"/>
	<path fill-rule="evenodd" clip-rule="evenodd" fill="#FFFFFF" d="M79.929,124.892c0.468,1.051,0.976,2.085,1.404,3.152
		c0.211,0.527,0.33,1.027,0.325,1.598c-0.005,0.511-0.108,1.024-0.088,1.534c0.034,0.861,1.008,0.435,1.446,0.122
		c0.829-0.592,1.242-1.797,1.714-2.664c0.5,0.223,0.451,0.957,0.596,1.408c0.188,0.586,0.476,1.137,0.834,1.635
		c0.348,0.484,0.777,0.887,1.169,1.332c0.146,0.165,0.287,0.385,0.457,0.525c0.202,0.168,0.526-0.031,0.5-0.283
		c-0.029-0.283-0.201-0.553-0.256-0.834c-0.064-0.33-0.064-0.668-0.016-1c0.1-0.678,0.365-1.381,0.756-1.945
		c0.324-0.467,0.749-0.852,1.207-1.185c0.349-0.253,0.926-0.773,1.389-0.745c0.406,0.025,0.381,0.678,0.378,0.953
		c-0.007,0.674-0.188,1.325-0.533,1.906c-0.75,1.26-1.475,2.534-2.219,3.798c-0.69,1.174-1.426,2.396-2.438,3.325
		c-0.902,0.83-2.128,1.147-3.316,1.303c-2.241,0.296-5.153,0.005-5.889,2.722c-0.377,1.388-0.589,2.763-0.666,4.194
		c-0.079,1.479-0.233,2.974,0.024,4.445c0.111,0.635,0.306,1.185,0.726,1.682c0.187,0.22,0.394,0.42,0.604,0.618
		c0.279,0.262,0.493,0.226,0.849,0.259c1.366,0.129,2.61-0.393,3.95-0.465c0.782-0.043,1.578,0.146,2.119,0.742
		c0.613,0.677,0.798,1.648,0.866,2.526c0.049,0.654-0.045,1.309-0.221,1.938c-0.149,0.533-0.307,1.25-0.722,1.647
		c-0.388,0.373-0.96,0.322-1.457,0.337c-0.804,0.023-1.608,0.046-2.413,0.059c-3.077,0.046-6.146-0.207-9.224-0.225
		c-0.652-0.004-1.322,0.023-1.972-0.044c-0.286-0.03-0.735-0.03-0.926-0.29c-0.187-0.253-0.135-0.673-0.132-0.965
		c0.009-0.765-0.027-1.528,0.004-2.293c0.025-0.623,0.19-1.241,0.191-1.862c0.001-0.281-0.062-0.56-0.226-0.793
		c-0.244-0.348-0.128-0.451-0.03-0.85c0.167-0.678,0.008-1.336-0.087-2.008c-0.111-0.785-0.109-1.58-0.123-2.371
		c-0.025-1.453-0.227-2.902-0.339-4.352c-0.055-0.707-0.111-1.416-0.198-2.12c-0.084-0.687-0.283-1.269-0.53-1.908
		c-0.225-0.579-0.232-1.242-0.33-1.851c-0.057-0.355-0.274-0.752-0.205-1.119c0.052-0.277,0.387-0.36,0.618-0.427
		c0.627-0.182,1.26-0.337,1.88-0.544c1.211-0.404,2.384-0.936,3.436-1.66c1.056-0.729,1.842-1.67,2.526-2.742
		c0.742-1.164,1.392-2.382,2.097-3.567C78.065,126.49,78.681,125.289,79.929,124.892C80.452,126.064,79.156,125.138,79.929,124.892z
		"/>
	<path fill-rule="evenodd" clip-rule="evenodd" fill="#FFFFFF" d="M145.312,120.463c0.433,0.327,0.452,0.796,0.45,1.292
		c-0.001,0.736,0.103,1.484,0.164,2.217c0.128,1.518,0.272,3.032,0.416,4.547c0.29,3.049,0.592,6.096,0.807,9.15
		c0.107,1.525,0.241,3.052,0.45,4.567c0.205,1.487,0.479,2.951,0.602,4.45c0.057,0.699,0.118,1.397,0.18,2.096
		c0.058,0.66,0.096,1.368,0.378,1.977c0.432,0.936,1.384,1.357,2.324,1.622c0.621,0.173,1.248,0.336,1.875,0.485
		c0.652,0.156,1.429,0.121,2.041,0.392c0.982,0.438,1.139,1.796,1.12,2.729c-0.016,0.684-0.153,1.359-0.364,2.008
		c-0.188,0.576-0.388,1.215-0.926,1.561c-0.4,0.258-0.889,0.328-1.354,0.354c-0.739,0.038-1.483,0.021-2.223,0.024
		c-3.046,0.014-6.124,0.114-9.166-0.059c-0.563-0.032-0.833-0.479-0.489-0.972c0.385-0.549,0.76-0.918,0.906-1.605
		c0.139-0.655,0.092-1.334,0.093-2c0.001-0.584,0.013-1.143-0.251-1.681c-0.205-0.415-0.536-0.752-0.932-0.989
		c-0.422-0.253-0.972-0.33-1.293-0.729c-0.318-0.396-0.289-0.962-0.324-1.441c-0.057-0.772-0.125-1.543-0.21-2.313
		c-0.325-2.973-0.922-5.875-1.831-8.725c-0.453-1.422-0.943-2.832-1.473-4.229c-0.409-1.08-0.704-2.201-0.293-3.332
		c0.42-1.152,1.464-1.953,2.375-2.717c0.984-0.825,1.869-1.666,2.453-2.832c0.387-0.773,0.598-1.626,0.891-2.436
		c0.333-0.92,0.702-1.827,1.115-2.715c0.297-0.64,0.944-0.754,1.267-0.072C144.43,121.804,145.067,120.718,145.312,120.463
		C145.891,120.902,145.215,120.564,145.312,120.463z"/>
	<path fill-rule="evenodd" clip-rule="evenodd" fill="#FFFFFF" d="M133.098,51.48c-0.896,0.897-1.377,2.103-2.245,3.015
		c-0.788,0.826-1.842,1.204-2.972,1.215c0.298-0.533,0.679-1.067,0.877-1.647c0.198-0.579-0.154-1.357-0.861-1.187
		c-0.611,0.146-1.088,0.545-1.748,0.452c-0.225-0.032-0.562,0.007-0.753-0.136c-0.164-0.125-0.212-0.34-0.342-0.494
		c-0.362-0.429-0.701-0.722-0.845-1.295c-0.137-0.548-0.102-1.123-0.065-1.682c0.029-0.458,0.197-0.948,0.765-0.909
		c0.47,0.033,0.733,0.788,1.059,1.073c0.787,0.69,1.987,0.713,2.908,0.283c0.437-0.203,0.803-0.526,1.074-0.921
		c0.149-0.218,0.271-0.454,0.37-0.698c0.109-0.271-0.587-0.44-0.817-0.511c-1.075-0.331-2.295-0.373-2.953-1.424
		c-0.281-0.447-0.281-0.922-0.427-1.411c-0.165-0.557-0.557-0.948-0.974-1.331c-0.283-0.263-0.523-0.472-0.118-0.729
		c0.551-0.35,1.154-0.646,1.798-0.771c1.081-0.21,2.123,0.147,2.916,0.89c0.463,0.433,0.846,0.949,1.293,1.398
		c0.178,0.18,0.602,0.116,0.59-0.188c-0.013-0.324-0.22-0.662-0.27-0.99c-0.187-1.222,0.441-2.545,1.591-3.059
		c0.994-0.444,2.345-0.589,3.374-0.2c0.285,0.107,0.555,0.261,0.794,0.45c-0.095,0.216-0.274,0.369-0.491,0.457
		c-0.492,0.203-0.976,0.209-1.375,0.614c-0.656,0.663-1.01,1.891-0.818,2.792c0.215,1.005,0.95,1.933,1.844,2.432
		c0.183,0.102,0.377,0.186,0.578,0.237c0.326,0.083,0.412-0.029,0.703-0.141c0.504-0.194,1.078-0.043,1.6-0.179
		c0.312-0.082,0.143-0.396,0.055-0.603c-0.271-0.652-0.411-1.291-0.254-1.995c0.115-0.515,0.363-0.946,0.902-1.095
		c0.623-0.172,1.404-0.382,2.023-0.104c0.312,0.141,0.878,0.441,0.635,0.855c-0.309,0.525-0.875,0.8-1.142,1.369
		c-0.425,0.906-0.106,1.875,0.868,2.218c1.25,0.439,2.875,0.204,4.125-0.12c1.411-0.366,2.723-1.049,4.173-1.273
		c1.326-0.205,2.663-0.06,3.935,0.358c2.346,0.77,4.09,2.665,4.77,5.029c0.636,2.215,0.463,5.204-1.203,6.936
		c-0.813,0.845-1.842,1.627-2.927,2.083c-1.188,0.5-2.478,0.64-3.756,0.694c-1.485,0.062-3.041,0.196-4.523,0.068
		c-0.66-0.057-1.294-0.267-1.945-0.369c-0.756-0.117-1.536-0.141-2.299-0.192c-6.138-0.411-12.305,0-18.452,0.007
		c-3.041,0.003-6.06,0.456-9.103,0.384c-0.745-0.017-1.489-0.063-2.229-0.149c-0.564-0.065-0.778-0.499-0.908-0.998
		c-0.223-0.856,0.153-1.369,1.049-1.36c1.442,0.013,2.861-0.16,4.304-0.267c1.501-0.112,2.992-0.031,4.494-0.085
		c1.507-0.054,2.987-0.107,4.496-0.038c1.54,0.072,3.081,0.002,4.62-0.077c3.11-0.16,6.18-0.103,9.289,0.023
		c1.516,0.061,3.082-0.05,4.585,0.139c0.694,0.087,1.379,0.237,2.072,0.329c0.75,0.098,1.515,0.098,2.271,0.107
		c2.473,0.033,5.717-0.276,7.306-2.462c0.732-1.007,1.247-2.288,1.092-3.549c-0.154-1.255-0.968-2.29-1.925-3.068
		c-1.936-1.573-4.39-1.697-6.753-1.259c-1.298,0.24-2.564,0.644-3.766,1.189c-0.581,0.264-1.146,0.56-1.694,0.886
		c-0.496,0.294-1.139,0.603-1.48,1.083c-0.3,0.42-0.204,0.963-0.512,1.403c-0.101,0.145-0.401,0.367-0.222,0.546
		c0.159,0.157,0.347,0.322,0.456,0.519c0.234,0.427-0.191,0.908-0.636,0.856c-0.505-0.059-1.01-0.219-1.363-0.6
		c-0.366-0.395-0.272-0.903-0.388-1.394c-0.057-0.243-0.125-0.485-0.154-0.734c-0.034-0.269,0.027-0.537-0.008-0.804
		c-0.132-0.961-1.812,0.456-2.1,0.7c-0.414,0.351-0.786,0.752-1.089,1.203c-0.347,0.516-0.438,0.975-0.515,1.579
		c-0.117,0.927-1.146,1.182-1.803,0.557c-0.298-0.284-0.571-0.722-0.558-1.148c0.019-0.597,0.082-1.275,0.216-1.858
		c0.053-0.229,0.106-0.565,0.337-0.657c0.185-0.074,0.474-0.204,0.489-0.437C134.056,50.63,133.242,51.27,133.098,51.48
		C132.416,52.163,133.118,51.45,133.098,51.48z"/>
	<path fill-rule="evenodd" clip-rule="evenodd" fill="#FFFFFF" d="M64.313,53.947c0.562-0.176,1.169-0.108,1.713-0.348
		c0.196-0.086,0.509-0.167,0.456-0.446c-0.049-0.256-0.535-0.404-0.729-0.509c-0.57-0.309-1.133-0.63-1.673-0.988
		c-0.566-0.374-1.049-0.891-1.62-1.246c-0.522-0.326-1.179-0.238-1.764-0.224c-0.803,0.021-1.606,0.052-2.408,0.095
		c-0.356,0.019-0.713,0.055-1.069,0.063c-0.348,0.009-0.664-0.107-1.002-0.166c-0.736-0.126-1.486-0.106-2.226-0.194
		c-0.694-0.083-1.382-0.222-2.082-0.265c-0.456-0.027-1.133-0.09-0.915,0.559c0.392,1.169,1.434,2.146,2.506,2.712
		c1.104,0.583,2.35,0.808,3.565,1.038c1.454,0.275,2.858,0.115,4.325,0.116C62.394,54.146,63.347,54.25,64.313,53.947
		C64.625,53.85,63.838,54.096,64.313,53.947z"/>
	<path fill-rule="evenodd" clip-rule="evenodd" fill="#FFFFFF" d="M69.721,56.082c-0.571-0.292-1.114-0.636-1.625-1.023
		c-0.526-0.397-0.972-0.853-1.678-0.85c-0.607,0.002-1.263,0.199-1.867,0.288c-0.486,0.071-0.962,0.121-1.452,0.145
		c-0.691,0.034-1.375,0.143-2.062,0.209c-0.766,0.075-1.493,0.013-2.257-0.03c-0.706-0.041-1.416-0.017-2.12-0.093
		c-0.426-0.046-1.302-0.383-1.464,0.261c-0.112,0.445,0.537,1.013,0.796,1.317c0.45,0.527,1.018,0.933,1.642,1.232
		c1.185,0.568,2.444,0.64,3.735,0.584c1.506-0.063,3.02-0.049,4.519-0.233c1.399-0.172,2.902-0.406,4.206-0.958
		c0.32-0.135,0.366-0.199,0.126-0.48C70.084,56.291,69.905,56.176,69.721,56.082C68.954,55.69,70.018,56.233,69.721,56.082z"/>
	<path fill-rule="evenodd" clip-rule="evenodd" fill="#FFFFFF" d="M98.123,90.95c-0.957,0.945-1.943,1.918-2.778,2.974
		c-0.798,1.009-1.644,2.216-1.952,3.48c-0.154,0.633-0.172,1.287-0.15,1.934c0.009,0.289-0.025,0.644,0.085,0.917
		c0.118,0.291,0.417,0.541,0.633,0.761c0.791,0.811,1.709,1.512,2.768,1.934c1.059,0.422,2.321,0.607,3.443,0.35
		c1.268-0.292,1.953-1.22,2.658-2.233c1.611-2.314,2.523-4.945,3.654-7.505c0.224-0.506,0.356-1.06,0.188-1.603
		c-0.231,0.082-0.525,0.095-0.716,0.265c-0.261,0.233-0.573,0.402-0.919,0.472c-0.672,0.136-1.375-0.082-2.008-0.293
		c-0.653-0.218-1.285-0.517-1.826-0.948c-0.257-0.205-0.452-0.398-0.742-0.552c-0.179-0.095-0.439-0.262-0.322-0.5
		C99.364,90.221,98.691,90.389,98.123,90.95C97.605,91.462,98.748,90.334,98.123,90.95z"/>
	<path fill-rule="evenodd" clip-rule="evenodd" fill="#FFFFFF" d="M102.594,81.426c1.053-0.305,1.815-1.073,2.599-1.808
		c1.017-0.952,1.974-1.967,2.887-3.018c0.439-0.505,0.868-1.02,1.289-1.541c0.556-0.687,0.339-1.132-0.072-1.834
		c-0.373-0.638-0.738-1.28-1.106-1.921c-0.287-0.504-0.615-1.374-1.166-1.659c-0.458-0.237-0.863,0.426-1.146,0.678
		c-0.188,0.165-0.408,0.275-0.662,0.271c-0.051,0.285-0.442,0.578-0.635,0.774c-0.926,0.938-2.023,1.675-3.09,2.441
		c-0.898,0.646-1.869,1.329-2.138,2.468c-0.258,1.096,0.13,2.319,0.687,3.262c0.347,0.586,0.822,1.247,1.377,1.653
		c0.246,0.179,0.555,0.189,0.847,0.207c0.068,0.004,0.54,0.08,0.583,0.025C102.763,81.426,102.678,81.426,102.594,81.426z"/>
	<path fill-rule="evenodd" clip-rule="evenodd" fill="#FFFFFF" d="M102.039,82.18c-0.959,0.944-1.746,2.155-2.432,3.308
		c-0.662,1.112-1.147,2.291-0.31,3.462c0.243,0.34,0.554,0.637,0.848,0.932c0.269,0.269,0.55,0.603,0.883,0.796
		c0.095,0.056,0.15,0.157,0.224,0.236c0.136,0.076,0.271,0.156,0.404,0.236c0.268,0.161,0.533,0.324,0.811,0.468
		c0.566,0.294,1.209,0.513,1.856,0.483c1.255-0.057,2.153-1.307,2.841-2.22c0.387-0.512,0.741-1.047,1.076-1.593
		c0.152-0.246,0.485-0.637,0.137-0.856c-0.475-0.297-1.053-0.458-1.553-0.713c-0.58-0.297-1.194-0.594-1.689-1.025
		c-0.871-0.757-1.135-1.725-1.307-2.817c-0.072-0.453-0.221-0.919-0.697-1.082C102.65,81.632,102.398,81.826,102.039,82.18
		C101.933,82.284,102.255,81.967,102.039,82.18z"/>
	<path fill-rule="evenodd" clip-rule="evenodd" fill="#FFFFFF" d="M42.239,130.102c0.276-0.194,0.534-0.417,0.827-0.589
		c0.175-0.104,0.356-0.141,0.487-0.297c0.121-0.145,0.251-0.285,0.406-0.394c0.281-0.198,0.623-0.301,0.911-0.493
		c0.33-0.221,0.633-0.479,0.951-0.716c0.224-0.167,0.595-0.312,0.746-0.556c0.201-0.326-0.223-0.535-0.483-0.545
		c-0.855-0.027-1.723-0.071-2.575,0.037c-0.749,0.095-1.593,0.305-2.213,0.755c-0.601,0.437-0.654,1.319-0.678,1.999
		c-0.014,0.412,0.004,0.826,0.017,1.238c0.005,0.136-0.063,0.535,0.097,0.537c0.126,0.001,0.25-0.039,0.365-0.091
		C41.556,130.782,41.84,130.384,42.239,130.102C42.634,129.824,42.093,130.207,42.239,130.102z"/>
	<path fill-rule="evenodd" clip-rule="evenodd" fill="#FFFFFF" d="M48.029,138.632c0.042,0.717-0.074,1.426-0.147,2.136
		c-0.078,0.765-0.066,1.535-0.089,2.302c-0.044,1.503-0.245,2.992-0.271,4.496c-0.012,0.729-0.005,1.457,0.011,2.187
		c0.01,0.435,0.08,0.931,0.439,1.226c0.386,0.316,0.962,0.327,1.431,0.41c0.721,0.129,1.457,0.189,2.19,0.191
		c0.434,0.001,1.072-0.061,0.744-0.648c-0.323-0.578-0.327-1.43-0.398-2.074c-0.161-1.468,0.015-2.993,0.227-4.447
		c0.167-1.146,0.502-2.271,1.09-3.275c0.624-1.065,1.507-1.893,2.496-2.619c1.024-0.752,2.146-1.377,3.363-1.762
		c1.359-0.43,2.813-0.553,4.223-0.717c2.718-0.316,5.454-0.504,7.917-1.807c1.019-0.539,1.946-1.248,2.698-2.123
		c0.871-1.012,1.484-2.225,2.053-3.424c0.288-0.605,0.564-1.219,0.852-1.825c0.084-0.179,0.448-0.708,0.281-0.821
		c-0.21-0.143-0.45-0.229-0.69-0.307c-0.404-0.132-0.84-0.246-1.142-0.563c-0.08-0.084-0.147-0.179-0.202-0.28
		c-0.099-0.185,0.061-0.182,0.214-0.251c0.315-0.142,0.648-0.235,0.961-0.381c0.877-0.405,1.32-1.343,1.595-2.218
		c0.285-0.907,0.439-1.927,0.259-2.869c-0.166-0.873-0.838-1.812-1.817-1.789c-1.215,0.03-1.819,1.391-2.235,2.334
		c-0.56,1.27-0.757,2.667-1.426,3.892c-0.575,1.052-1.464,1.918-2.54,2.454c-1.207,0.603-2.603,0.727-3.914,0.969
		c-1.511,0.279-3.022,0.561-4.536,0.822c-3.493,0.605-7.096,0.977-10.018,3.181c-1.225,0.924-2.356,2.087-3.012,3.487
		C48.025,135.822,47.947,137.218,48.029,138.632C48.084,139.593,48.009,138.296,48.029,138.632z"/>
	<path fill-rule="evenodd" clip-rule="evenodd" fill="#FFFFFF" d="M75.527,97.319c0.1,0.135,0.16,0.12,0.18-0.044
		C75.646,97.286,75.586,97.301,75.527,97.319C75.567,97.354,75.589,97.298,75.527,97.319z"/>
	<path fill-rule="evenodd" clip-rule="evenodd" fill="#FFFFFF" d="M140.368,124.565c-0.386,0.015-0.608-0.175-0.671-0.547
		c-0.083-0.485-0.378-0.868-0.775-1.147c-0.412-0.291-0.844-0.524-1.201-0.889c-0.159-0.164-0.302-0.342-0.422-0.535
		c-0.131-0.209-0.205-0.513-0.41-0.662c-0.367-0.27-0.749,0.223-0.943,0.477c-0.357,0.467-0.662,0.104-1.117,0.277
		c-0.391,0.149-0.713,0.629-0.967,0.941c-0.324,0.398-0.65,0.811-1.104,1.072c-0.228-0.804-0.452-1.563-0.961-2.238
		c-0.514-0.68-0.982-1.408-1.193-2.242c-0.065-0.256-0.114-0.746-0.478-0.445c-0.307,0.254-0.583,0.544-0.826,0.858
		c-0.522,0.673-0.896,1.445-1.227,2.224c-0.78-0.468-1.321-1.166-1.658-2.003c-0.392-0.976-0.271-2.089-0.794-3.018
		c-0.826,0.827-0.789,2.182-1.733,2.925c-0.316-0.564-0.707-1.13-0.96-1.725c-0.151-0.355,0.24-0.344,0.449-0.225
		c0.168,0.098,0.347,0.217,0.539,0.264c0.338,0.082,0.442-0.417,0.521-0.644c0.246-0.694,0.344-1.436,0.264-2.169
		c-0.076-0.693-0.343-1.287-0.59-1.93c-0.242-0.629-0.27-1.246-0.278-1.91c-0.005-0.326-0.006-0.653,0.036-0.977
		c0.034-0.263,0.211-0.582,0.182-0.84c-0.061-0.504-1.13,0.021-1.34,0.158c-0.993,0.639-0.89,2.086-0.927,3.127
		c-0.046,1.285,0.062,2.838,0.802,3.943c0.104,0.154,0.314,0.613-0.071,0.602c-0.239-0.008-0.378-0.448-0.469-0.617
		c-0.322-0.594-0.544-1.223-0.841-1.824c-0.189-0.385-0.438-0.293-0.734-0.062c-0.389,0.302-0.688,0.82-1.217,0.881
		c-0.124-0.689-0.207-1.385-0.332-2.072c-0.138-0.742-0.382-1.449-0.574-2.178c-0.18-0.68-0.325-1.371-0.406-2.072
		c-0.04-0.342,0.125-1.52-0.39-1.553c-0.526-0.033-0.837-0.419-1.117-0.818c-0.334-0.475-0.616-0.73-1.088-0.258
		c-0.894,0.894-1.491,2.035-2.8,2.392c-1.197,0.326-2.498-0.178-3.596-0.636c-0.588-0.244-1.156-0.538-1.688-0.888
		c-0.251-0.165-0.54-0.257-0.771-0.45c-0.254-0.213-0.487-0.436-0.744-0.645c-0.979-0.803-1.136-1.964-1.19-3.152
		c-0.032-0.722-0.02-1.448,0.074-2.166c0.031-0.246,0.205-0.737,0.01-0.943c-0.285-0.299-0.438-0.03-0.607,0.212
		c-0.727,1.043-1.401,2.209-2.516,2.884c-0.946,0.573-2.089,0.821-3.189,0.692c-1.291-0.15-2.449-0.841-3.522-1.53
		c-1.076-0.69-2.327-1.458-2.595-2.809c-0.253-1.278,0.353-2.693,0.941-3.799c0.112-0.21,0.162-0.461-0.114-0.571
		c-0.281-0.112-0.644,0.146-0.896,0.244c-0.663,0.255-1.323,0.573-2.008,0.764c-1.173,0.326-2.339-0.031-3.176-0.899
		c-0.378-0.392-0.7-0.777-1.241-0.947c-0.641-0.2-1.354-0.044-2.006,0.016c-2.99,0.272-5.982,0.349-8.983,0.414
		c-1.533,0.033-3.065,0.067-4.598,0.101c-1.277,0.027-2.817-0.136-3.971,0.515c0.78,0.169,1.522,0.192,2.319,0.258
		c0.946,0.078,1.886,0.213,2.821,0.373c0.936,0.16,1.867,0.344,2.799,0.521c0.406,0.077,0.814,0.169,1.225,0.215
		c0.246,0.028,0.451,0.11,0.383,0.396c0.571-0.133,1.09,0.085,1.641,0.2c0.234,0.048,0.515-0.043,0.727,0.041
		c0.177,0.071,0.333,0.418,0.065,0.48c-0.2,0.047-0.453-0.056-0.652-0.08c-0.286-0.034-0.574-0.051-0.856-0.103
		c-0.299-0.054-0.589-0.149-0.846-0.312c-0.157-0.099-0.525,0.012-0.78-0.027c-2.972-0.458-5.92-1.091-8.915-1.403
		c-1.486-0.155-2.895,0.009-4.342,0.359c-1.164,0.282-2.314,0.592-3.259,1.363c-1.003,0.817-1.609,2.035-2.114,3.198
		c-0.559,1.286-0.958,2.633-1.333,3.981c-0.192,0.69-0.258,1.386-0.299,2.099c-0.046,0.776-0.167,1.509-0.314,2.271
		c-0.28,1.448-0.458,2.896-0.803,4.332c-0.343,1.428-0.717,2.856-0.965,4.304c-0.116,0.679-0.417,1.301-0.685,1.93
		c-0.302,0.713-0.615,1.421-0.941,2.123c-0.571,1.227-1.202,2.367-2.093,3.395c-0.831,0.956-1.787,1.84-2.783,2.624
		c-0.501,0.396-1.065,0.699-1.6,1.046c-0.604,0.392-1.164,0.85-1.764,1.251c-0.787,0.525-1.661,1.224-2,2.128
		c-0.507,1.352-0.414,2.945-0.458,4.364c-0.048,1.53-0.094,3.061-0.134,4.593c-0.079,3.066-0.115,6.135-0.122,9.202
		c-0.003,1.536,0,3.073,0.002,4.609c0.001,0.723,0.006,1.441-0.041,2.163c-0.028,0.444-0.167,1.435,0.292,1.729
		c0.423,0.27,1.261,0.121,1.737,0.124c0.794,0.007,1.587-0.001,2.38,0.007c1.541,0.013,3.081,0.047,4.621,0.048
		c1.543,0.001,3.086-0.009,4.63-0.01c0.712-0.001,1.45,0.06,2.155-0.057c0.561-0.093,1.401-0.138,1.854-0.509
		c0.449-0.369,0.632-1.033,0.756-1.575c0.16-0.705,0.155-1.437-0.013-2.141c-0.257-1.081-0.849-2.151-1.947-2.552
		c-0.545-0.199-1.12-0.175-1.692-0.189c-0.795-0.021-1.59-0.052-2.385-0.099c-0.733-0.044-1.465-0.099-2.195-0.173
		c-0.653-0.066-1.342-0.099-1.974-0.289c-0.881-0.268-1.282-0.947-1.364-1.832c-0.062-0.67,0.033-1.371,0.08-2.041
		c0.055-0.773,0.067-1.542,0.075-2.318c0.017-1.53,0.161-3.057,0.235-4.585c0.055-1.146,0.024-2.288,0.115-3.431
		c0.086-1.08,0.234-2.209,0.639-3.222c0.514-1.286,1.555-2.081,2.534-3.003c1.825-1.717,4.18-2.871,6.669-3.225
		c0.682-0.097,1.38-0.085,2.05-0.262c0.749-0.197,1.506-0.359,2.268-0.502c1.463-0.275,2.938-0.48,4.402-0.746
		c2.367-0.43,4.885-0.861,5.972-3.268c0.591-1.309,1.037-2.663,1.563-3.996c0.436-1.104,1.19-2.172,2.466-2.303
		c1.062-0.109,2.167,0.367,2.553,1.406c0.411,1.106,0.483,2.476,0.208,3.617c-0.14,0.578-0.382,1.129-0.708,1.627
		c-0.156,0.235-0.323,0.478-0.536,0.667c-0.132,0.118-0.535,0.553-0.163,0.572c1.304,0.067,2.006-0.786,2.732-1.743
		c0.437-0.574,0.928-1.48,1.716-1.6c0.085,0.535-0.387,1.094-0.533,1.593c-0.207,0.71-0.226,1.459-0.09,2.185
		c0.248,1.318,1,2.48,1.232,3.803c0.056,0.314,0.08,0.635,0.065,0.953c-0.008,0.176-0.059,0.475,0.198,0.496
		c0.511,0.043,0.874-0.814,1.028-1.183c0.435-1.036,0.598-2.339,1.475-3.133c0.178-0.159,0.387-0.283,0.615-0.355
		c0.128-0.042,0.262-0.067,0.396-0.081c0.06,0.133,0.08,0.275,0.056,0.419c-0.043,0.261-0.185,0.499-0.246,0.757
		c-0.093,0.389-0.143,0.787-0.161,1.187c-0.028,0.632-0.029,1.326,0.194,1.926c0.166,0.445,0.56,1.138,1.059,1.28
		c0.435,0.123,0.553-0.627,0.648-0.887c0.212-0.582,0.542-1.113,0.943-1.585c0.829-0.971,1.936-1.675,2.948-2.437
		c0.914-0.688,0.942,1.481,0.939,1.935c-0.006,0.729-0.009,1.459,0,2.188c0.008,0.697,0.019,1.398,0.38,2.02
		c0.188,0.32,0.728,0.904,1.12,0.482c0.125-0.135,0.13-0.344,0.141-0.518c0.018-0.292,0.084-0.576,0.16-0.859
		c0.303-1.141,0.918-2.299,1.938-2.958c0.363-0.235,0.9-0.396,1.333-0.261c0.157,0.049,0.075,0.547,0.087,0.674
		c0.033,0.375,0.103,0.749,0.062,1.125c-0.133,1.239,0.097,2.784,0.896,3.791c0.254,0.322,0.847,0.35,0.918-0.124
		c0.086-0.567,0.217-1.188,0.458-1.716c0.247-0.54,0.592-1.027,0.927-1.516c0.307-0.444,0.619-0.908,1.158-1.092
		c0.195-0.066,0.406-0.089,0.612-0.072c0.292,0.023,0.113,0.297-0.018,0.424c-0.364,0.355-0.214,1.366-0.198,1.834
		c0.017,0.493-0.087,1.236,0.125,1.688c0.225,0.482,0.811,0.409,0.975-0.073c0.162-0.476,0.393-0.966,0.792-1.287
		c0.464-0.372,0.997-0.655,1.467-1.021c0.425-0.333,0.82-0.708,1.126-1.153c0.087-0.123,0.165-0.253,0.235-0.386
		c0.121,0.033,0.235,0.091,0.325,0.181c0.142,0.145,0.185,0.34,0.249,0.523c0.387,1.098,1.454,1.709,2.087,2.646
		c0.141,0.207,0.268,0.422,0.378,0.646c0.104,0.209,0.171,0.568,0.388,0.693c0.426,0.246,0.759-0.748,0.824-1.001
		c0.314-1.22-0.165-2.64-0.312-3.86c-0.122-1-0.094-2.018,0.828-2.641c0.314,1.047,0.854,2.049,1.376,3.004
		c0.412,0.751,0.866,1.775,1.555,2.322c0.227-0.654,0.501-1.27,0.636-1.952c0.141-0.704,0.369-1.388,0.639-2.052
		c0.248-0.611,0.528-1.209,0.809-1.806c0.132-0.284,0.248-0.582,0.41-0.851c0.166-0.273,0.424-0.467,0.592-0.728
		c0.092-0.14,0.435-0.321,0.499-0.055c0.058,0.243-0.071,0.628-0.083,0.885c-0.034,0.692,0.015,1.388,0.15,2.067
		c0.271,1.343,0.939,2.5,1.562,3.702c0.606,1.173,1.176,2.379,1.489,3.667c0.153,0.629,0.243,1.273,0.253,1.92
		c0.005,0.328,0.201,0.635,0.232,0.975c0.035,0.372-0.02,0.745-0.105,1.106c-0.328,1.378-0.799,2.716-1.234,4.06
		c-0.394,1.213-0.639,2.484-1.21,3.635c-0.55,1.106-1.632,1.847-1.888,3.095c-0.111,0.541-0.13,1.167,0.021,1.704
		c0.184,0.654,0.646,0.643,1.191,0.849c0.908,0.345,1.412,1.235,1.407,2.181c-0.007,1.199-0.872,2.154-0.935,3.354
		c-0.022,0.422-0.012,0.982,0.205,1.363c0.216,0.378,0.704,0.42,1.092,0.462c1.512,0.165,3.033,0.081,4.549,0.092
		c1.547,0.011,3.09,0.097,4.637,0.097c1.555-0.001,3.111-0.02,4.666,0.031c1.07,0.035,1.872-0.503,2.426-1.388
		c0.729-1.165,0.797-2.495,0.64-3.826c-0.105-0.89-0.335-1.804-1.194-2.251c-1.06-0.55-2.414-0.33-3.561-0.385
		c-1.028-0.047-2.006-0.436-2.614-1.294c-0.349-0.492-0.506-1.081-0.829-1.589c-0.361-0.569-0.551-1.222-0.582-1.895
		c-0.063-1.376,0.344-2.833,0.635-4.168c0.311-1.426,0.684-2.838,1.127-4.229c0.355-1.113,0.802-2.189,1.182-3.291
		c0.322-0.934,1.01-2.184,0.158-3.02c-0.21-0.208-0.34-0.681-0.691-0.689c-0.455-0.012-0.479,0.539-0.512,0.863
		c-0.1,0.981-0.525,1.904-1.188,2.633c-0.611,0.674-1.315,1.374-2.27,1.457c-0.234,0.02-0.471,0.006-0.701-0.033
		c-0.27-0.047-0.188-0.352-0.094-0.552c0.241-0.513,0.535-0.942,0.646-1.515c0.436-2.222-1.385-4.279-2.049-6.285
		c-0.425,0.354-0.619,0.848-0.718,1.379c-0.046,0.244-0.076,0.491-0.126,0.736c-0.023,0.117-0.053,0.234-0.09,0.35
		c-0.062,0.188-0.055,0.246-0.24,0.156c-0.703-0.35-1.207-1.031-1.549-1.716c-0.603-1.204-1.09-3.38,0.223-4.326
		c0.136-0.099,0.356-0.292,0.465-0.09c0.104,0.19-0.195,0.446-0.28,0.595c-0.339,0.598-0.484,1.276-0.396,1.959
		c0.08,0.618,0.329,1.203,0.631,1.744c0.451,0.81,0.74,0.146,0.972-0.404c0.185-0.435,1.638-3.18,2.369-2.25
		c0.206,0.262-0.231,0.887-0.286,1.167c-0.136,0.688-0.01,1.377,0.24,2.022c0.535,1.391,1.409,2.615,1.486,4.15
		c0.017,0.342-0.006,0.688-0.072,1.022c-0.044,0.228-0.248,0.597-0.109,0.819c0.324,0.516,1.163-0.136,1.395-0.425
		c0.394-0.489,0.722-1.033,0.941-1.622c0.234-0.631,0.264-1.251,0.338-1.91c0.077-0.699,0.281-1.398,0.478-2.072
		c0.16-0.557,0.505-0.995,0.999-1.299c0,0.363,0.059,0.736,0.008,1.098c-0.062,0.457-0.125,0.863-0.016,1.322
		c0.21,0.89,0.823,1.65,1.379,2.352c0.279,0.352,0.566,0.697,0.848,1.046c0.179,0.221,0.447,0.746,0.795,0.432
		c0.234-0.213,0.154-0.739,0.189-1.017c0.06-0.469,0.178-0.929,0.339-1.373c0.287-0.797,0.679-1.662,1.249-2.298
		c0.581-0.646,1.342-1.094,1.979-1.677c0.621-0.57,1.146-1.24,1.553-1.978C140.145,126.146,141.049,124.541,140.368,124.565
		C139.881,124.583,140.744,124.552,140.368,124.565z"/>
	<path fill-rule="evenodd" clip-rule="evenodd" fill="#FFFFFF" d="M118.486,81.583c-0.637,0.173-1.302,0.235-1.959,0.167
		c-0.736-0.076-1.338-0.375-2.027-0.599c-0.244-0.079-1.445-0.024-1.103-0.625c0.284-0.499,1.302-0.645,1.806-0.732
		c1.223-0.213,1.748-1.072,2.397-2.013c0.308-0.445,0.673-0.854,1.104-1.183c0.496-0.379,1.082-0.562,1.608-0.885
		c0.246-0.15,0.479-0.325,0.686-0.526c0.205-0.198,0.356-0.483,0.588-0.648c0.392-0.279,1.114,0.416,1.335,0.707
		c0.378,0.493,0.712,0.92,1.206,1.31c0.482,0.383,0.985,0.814,1.644,0.78c0.162-0.009,0.319,0.03,0.292-0.173
		c-0.014-0.098-0.053-0.189-0.124-0.257c-0.13-0.124-0.317-0.154-0.481-0.212c-0.504-0.182-0.981-0.548-1.365-0.914
		c-0.781-0.739-1.319-1.72-1.552-2.767c-0.206-0.932-0.264-2.184,0.331-2.995c0.658-0.901,2.064-0.987,3.062-0.752
		c1.236,0.292,2.203,1.22,3.421,1.596c1.351,0.417,2.681,0.235,4.058,0.092c3.066-0.316,6.149-0.714,9.236-0.604
		c1.539,0.055,3.071,0.211,4.594,0.439c1.318,0.197,2.76,0.707,4.087,0.391c0.528-0.126,1.028-0.342,1.519-0.57
		c0.506-0.235,1.051-0.44,1.525-0.733c0.461-0.286,0.92-0.667,1.477-0.743c0.539-0.074,1.043,0.223,1.443,0.553
		c0.797,0.654,1.011,1.656,0.843,2.64c-0.185,1.093-0.872,1.947-1.657,2.691c-0.419,0.398-0.873,0.761-1.363,1.068
		c-0.309,0.193-0.73,0.633-0.169,0.846c0.903,0.343,1.531,1.032,1.923,1.899c0.421,0.938,0.672,1.971,0.943,2.96
		c0.154,0.558,0.272,1.14,0.583,1.635c0.291,0.462,0.673,0.876,0.849,1.402c-1.14,0.448-2.056-0.831-2.54-1.683
		c-0.278-0.49-1.353-2.95-2.179-2.022c1.011,0.657,1.574,1.71,1.977,2.812c0.196,0.536,0.33,1.107,0.626,1.6
		c0.334,0.556,0.866,0.918,1.272,1.414c0.765,0.934,1.074,2.084,1.168,3.267c0.057,0.714,0.084,1.433,0.033,2.149
		c-0.028,0.391,0.004,1.323-0.441,1.532c-0.387,0.181-0.978-0.114-1.268-0.355c-0.498-0.412-0.719-1.079-0.91-1.671
		c-0.09-0.277-0.673-1.335-0.305-1.492c0.238-0.102,0.621,0.123,0.832,0.223c0.33,0.157,0.584,0.431,0.903,0.59
		c0.255,0.128,0.527-0.102,0.466-0.372c-0.066-0.291-0.252-0.576-0.346-0.864c-0.218-0.676-0.341-1.383-0.609-2.043
		c-0.453-1.122-1.288-2.057-2.317-2.689c-1.263-0.775-2.112,0.262-2.631,1.371c-0.616,1.317-1.062,2.708-1.681,4.024
		c-0.589,1.25-1.352,2.411-2.211,3.493c-0.791,0.996-1.679,1.93-2.776,2.592c-0.981,0.592-2.44,1.084-3.523,0.442
		c-0.786-0.467-1.263-1.53-1.015-2.421c0.164-0.592,0.594-0.649,1.083-0.901c0.521-0.268,0.985-0.639,1.271-1.156
		c0.099-0.177,0.224-0.439,0.068-0.622c-0.17-0.201-0.363-0.121-0.483,0.07c-0.285,0.449-0.617,0.817-1.135,0.997
		c-0.77,0.267-1.771,0.172-2.568,0.112c-0.756-0.057-1.35-0.459-1.633-1.167c-0.239,0.41-0.439,0.868-0.104,1.282
		c0.392,0.481,0.994,0.7,1.586,0.816c0.3,0.059,0.73,0.085,0.965,0.312c0.244,0.234,0.278,0.733,0.314,1.044
		c0.315,2.66-3.779,2.292-5.297,1.537c-1.162-0.578-1.838-1.675-2.596-2.676c-0.874-1.156-1.82-2.319-2.484-3.61
		c-0.303-0.586-0.541-1.203-0.754-1.826c-0.076-0.227-0.356-1.687-0.832-1.25c-0.58,0.531,0.816,2.266-0.45,2.283
		c-1.384,0.019-2.759-0.642-4.117-0.108c-0.35,0.138-0.899,0.496-1.081-0.059c-0.153-0.47,0.018-1.034,0.216-1.464
		c0.435-0.941,1.269-1.816,2.249-2.193c0.426-0.164,1.052-0.016,1.412-0.278c0.583-0.425-0.624-0.889-0.907-0.927
		c-1.288-0.174-2.676,0.042-3.822,0.654c-0.247,0.132-0.455,0.278-0.739,0.25c-0.164-0.225-0.145-0.518-0.072-0.771
		c0.16-0.555,0.428-1.107,0.72-1.605c0.563-0.964,1.486-1.958,2.616-2.224c0.568-0.134,1.21,0.033,1.755-0.136
		c0.184-0.057,0.306-0.271,0.177-0.445c-0.149-0.202-0.529-0.199-0.748-0.218c-2.562-0.214-4.289,2.249-5.069,4.361
		c-0.222,0.6-0.384,1.223-0.47,1.856c-0.07,0.522,0.062,1.255-0.325,1.673c-0.367,0.397-1.04,0.701-1.523,0.939
		c-0.576,0.285-1.162,0.382-1.786,0.498c-0.596,0.11-1.192,0.259-1.734,0.537c-0.416,0.213-0.971,0.918-1.482,0.647
		c-0.965-0.512-0.156-2.088,0.219-2.73c0.554-0.951,1.344-1.801,2.283-2.381c0.946-0.584,2.06-0.688,2.877-1.503
		c-0.645-0.293-1.286,0.235-1.904,0.401c-0.727,0.195-1.484,0.245-2.234,0.196c-0.723-0.048-1.412-0.234-2.119-0.378
		c-0.265-0.054-0.803-0.009-1.01-0.184c-0.191-0.162-0.137-0.475,0.027-0.633c0.48-0.468,1.169-0.653,1.8-0.819
		c0.792-0.209,1.603-0.343,2.413-0.458c0.773-0.109,1.505-0.297,2.262-0.45c0.236-0.048,0.484-0.192,0.398-0.47
		C118.912,81.265,118.637,81.505,118.486,81.583C117.157,81.944,118.66,81.494,118.486,81.583z"/>
	<path fill-rule="evenodd" clip-rule="evenodd" fill="#FFFFFF" d="M131.198,80.029c-0.161,0.287,0.085,0.44,0.276,0.63
		c0.28,0.28,0.568,0.552,0.863,0.815c0.632,0.564,1.296,1.093,1.982,1.589c0.924,0.668,2.105,1.499,2.906,0.217
		c0.271-0.432,0.646-1.17,0.55-1.699c-0.091-0.501-1.216-0.481-1.572-0.548c-0.819-0.153-1.632-0.333-2.443-0.526
		C132.967,80.319,132.023,79.91,131.198,80.029C131.072,80.253,131.719,79.954,131.198,80.029z"/>
	<path fill-rule="evenodd" clip-rule="evenodd" fill="#FFFFFF" d="M151.104,80.487c-0.373-0.136-0.774-0.009-1.144,0.074
		c-0.411,0.093-0.82,0.188-1.229,0.284c-0.879,0.206-1.756,0.417-2.633,0.623c-0.392,0.092-1.021,0.144-1.322,0.452
		c-0.258,0.265,0.08,0.724,0.224,0.957c0.317,0.514,0.686,1.077,1.284,1.291c0.613,0.219,1.225-0.077,1.691-0.469
		c0.631-0.533,1.188-1.154,1.789-1.718c0.281-0.264,0.572-0.521,0.877-0.761C150.887,81.024,151.246,80.861,151.104,80.487
		C150.739,80.354,151.22,80.791,151.104,80.487z"/>
</g>
<g id="Eyes">
	<path fill-rule="evenodd" clip-rule="evenodd" fill="#29425F" d="M131.198,80.029c0.776-0.112,1.643,0.259,2.389,0.438
		c0.868,0.208,1.739,0.403,2.617,0.567c0.355,0.066,1.395,0.047,1.555,0.483c0.184,0.501-0.276,1.357-0.532,1.764
		c-0.801,1.281-1.982,0.451-2.906-0.217c-0.641-0.464-1.262-0.955-1.855-1.477c-0.297-0.262-0.588-0.531-0.87-0.809
		C131.385,80.574,131.015,80.354,131.198,80.029C131.719,79.954,131.072,80.253,131.198,80.029z"/>
	<path fill-rule="evenodd" clip-rule="evenodd" fill="#29425F" d="M151.104,80.487c0.121,0.318-0.108,0.461-0.332,0.629
		c-0.309,0.234-0.603,0.488-0.887,0.75c-0.609,0.562-1.18,1.165-1.791,1.725c-0.428,0.392-0.993,0.74-1.598,0.631
		c-0.67-0.12-1.094-0.709-1.432-1.244c-0.147-0.231-0.503-0.681-0.348-0.981c0.181-0.348,0.879-0.413,1.205-0.49
		c0.879-0.205,1.755-0.416,2.633-0.622c0.409-0.097,0.819-0.192,1.229-0.285C150.201,80.506,150.68,80.333,151.104,80.487
		C151.22,80.791,150.739,80.354,151.104,80.487z"/>
</g>
<g id="Pupils">
	<path fill-rule="evenodd" clip-rule="evenodd" fill="#FFFFFF" d="M133.656,81.326c0.729-0.035,1.438,0.161,2.132,0.353
		c0.597,0.165,1.266,0.27,0.773,0.999c-0.349,0.517-0.921,0.568-1.416,0.216c-0.327-0.233-0.634-0.493-0.935-0.758
		c-0.129-0.113-0.258-0.228-0.388-0.341C133.596,81.597,133.549,81.606,133.656,81.326
		C134.617,81.279,133.625,81.407,133.656,81.326z"/>
	<path fill-rule="evenodd" clip-rule="evenodd" fill="#FFFFFF" d="M148.492,81.845c-0.352,0.843-1.666,2.199-2.574,1.236
		c-0.152-0.161-0.275-0.404-0.246-0.632c0.041-0.328,0.398-0.363,0.656-0.427C147.043,81.843,147.758,81.678,148.492,81.845
		C148.195,82.557,147.579,81.638,148.492,81.845z"/>
</g>
</svg>
